<?xml version="1.0" standalone="no"?>
<!DOCTYPE svg PUBLIC "-//W3C//DTD SVG 20010904//EN"
 "http://www.w3.org/TR/2001/REC-SVG-20010904/DTD/svg10.dtd">
<svg version="1.0" xmlns="http://www.w3.org/2000/svg"
 width="745.000000pt" height="745.000000pt" viewBox="0 0 745.000000 745.000000"
 preserveAspectRatio="xMidYMid meet">
<metadata>
Created by potrace 1.14, written by Peter Selinger 2001-2017
</metadata>
<g transform="translate(0.000000,745.000000) scale(0.100000,-0.100000)"
fill="#000000" stroke="none">
<path d="M4923 6382 c-15 -2 -36 -27 -67 -80 -25 -42 -45 -81 -45 -85 0 -5 -6
-14 -14 -20 -35 -30 -116 -147 -111 -162 3 -8 10 -15 16 -15 5 0 6 5 2 12 -5
7 -3 8 7 2 16 -10 20 -11 50 -13 11 0 18 -5 15 -10 -3 -5 -22 -8 -41 -6 -23 1
-39 -3 -44 -13 -5 -9 -11 -11 -15 -4 -3 6 -2 13 3 17 6 3 7 13 4 21 -4 12 -22
-1 -74 -52 l-68 -67 -101 -2 c-56 -1 -105 -6 -108 -11 -8 -10 -47 -14 -142
-14 -36 0 -86 -4 -112 -8 -27 -6 -48 -6 -48 -1 0 5 7 9 17 9 21 0 93 32 93 41
0 4 11 10 24 13 13 3 38 19 55 35 17 16 31 27 31 24 0 -2 18 15 40 38 40 43
50 72 30 84 -12 8 -110 -25 -110 -36 0 -4 -9 -11 -20 -14 -11 -4 -18 -11 -15
-16 3 -5 0 -6 -7 -4 -8 3 -23 -4 -35 -15 -12 -11 -27 -20 -33 -20 -5 0 -10 -5
-10 -10 0 -6 -11 -15 -25 -22 -13 -6 -22 -16 -18 -22 3 -6 3 -8 -2 -4 -4 4
-26 -8 -50 -27 -27 -23 -42 -30 -42 -20 0 8 4 12 8 9 9 -5 77 83 103 134 9 18
14 38 10 44 -4 7 -3 8 4 4 7 -4 16 9 23 36 16 59 19 88 9 88 -5 0 -7 7 -4 15
9 23 -28 19 -62 -7 -36 -28 -44 -39 -37 -52 3 -5 1 -6 -5 -3 -13 9 -75 -90
-66 -105 4 -7 2 -8 -4 -4 -11 6 -16 -6 -13 -26 0 -5 -4 -8 -10 -8 -6 0 -9 -6
-7 -12 3 -7 -2 -19 -9 -27 -8 -7 -12 -20 -9 -28 3 -8 1 -11 -4 -8 -14 9 -12
-28 3 -45 10 -12 9 -12 -5 -1 -10 7 -18 10 -19 5 0 -5 -3 -18 -6 -29 -2 -11
-5 -32 -6 -47 -1 -16 -5 -28 -9 -28 -5 0 -7 -3 -7 -7 1 -5 1 -29 0 -54 l-1
-47 -42 15 c-53 18 -160 40 -180 37 -12 -1 -18 10 -23 45 -16 106 -93 298
-129 323 -6 4 -7 8 -3 8 4 0 -4 16 -19 35 -14 19 -30 32 -35 29 -5 -3 -6 1 -3
9 5 14 -48 47 -75 47 -22 0 -17 -98 7 -117 9 -8 11 -11 3 -7 -11 5 -13 3 -8
-10 4 -10 7 -20 7 -22 0 -3 4 -3 9 1 6 3 8 -4 6 -15 -2 -11 3 -24 13 -30 9 -5
14 -10 9 -10 -4 0 0 -11 9 -25 9 -14 20 -22 25 -19 5 3 6 -1 4 -9 -3 -7 6 -26
20 -41 30 -32 30 -32 6 -32 -11 0 -17 5 -14 13 3 7 -2 13 -11 13 -9 0 -16 5
-16 11 0 5 -4 7 -10 4 -5 -3 -10 0 -10 8 0 7 -12 20 -27 28 -16 8 -30 16 -33
20 -23 25 -81 59 -91 53 -7 -4 -9 -3 -6 3 6 10 -78 53 -103 53 -22 0 -21 -30
1 -62 39 -54 57 -71 70 -63 7 5 10 4 6 -2 -7 -11 56 -59 83 -65 8 -2 20 -10
27 -18 11 -13 14 -13 23 0 8 13 10 13 10 -2 0 -10 4 -18 8 -18 5 0 17 -7 28
-15 18 -14 18 -15 -6 -6 -14 4 -65 9 -114 10 -50 1 -118 8 -153 15 -35 8 -95
13 -134 11 l-72 -2 -64 61 c-36 33 -89 92 -118 131 -29 38 -62 79 -72 90 -11
11 -19 24 -20 28 0 5 -22 44 -48 88 -46 76 -49 79 -85 79 -21 0 -42 -6 -48
-12 -13 -17 -31 -105 -36 -173 0 -16 -4 -35 -8 -41 -8 -12 -5 -40 5 -50 3 -4
13 -1 22 6 12 10 15 10 15 -1 0 -11 2 -11 10 1 9 13 10 13 10 0 0 -10 3 -11 8
-4 4 6 16 10 27 8 10 -2 24 1 30 5 5 4 21 6 34 5 l24 -1 -24 18 c-13 9 -26 16
-30 13 -4 -2 -9 2 -12 10 -5 14 -43 16 -64 3 -6 -4 -14 -1 -17 5 -3 7 -3 2 0
-12 4 -14 3 -22 -1 -18 -5 4 -14 3 -22 -3 -17 -15 -16 1 2 25 8 11 25 21 37
22 36 5 69 11 119 21 36 8 46 7 46 -4 0 -8 -7 -11 -19 -7 -10 3 -18 1 -18 -5
0 -6 -5 -11 -11 -11 -5 0 -7 5 -4 10 3 6 2 10 -4 10 -5 0 -13 -5 -16 -10 -4
-6 -11 -7 -17 -4 -7 4 -8 2 -4 -4 4 -6 13 -9 22 -5 9 3 14 0 12 -8 -2 -8 5
-13 15 -12 12 0 16 -4 13 -12 -3 -9 2 -12 14 -10 11 2 22 0 25 -5 3 -4 -3 -7
-12 -5 -10 1 -22 0 -28 -4 -5 -3 -17 -7 -25 -8 -62 -11 -88 -15 -107 -16 -13
0 -23 -5 -23 -10 0 -4 -5 -5 -10 -2 -6 3 -17 0 -25 -9 -17 -17 -22 -142 -5
-131 6 3 10 2 10 -3 0 -6 12 -18 28 -29 15 -10 28 -24 30 -30 4 -21 -14 -15
-32 10 l-17 22 11 -22 c6 -14 7 -23 1 -23 -5 0 -12 6 -14 13 -4 7 -6 8 -6 1
-1 -7 10 -19 24 -28 15 -10 22 -22 19 -31 -4 -8 -10 -12 -15 -9 -5 3 -6 -2 -2
-11 3 -9 9 -12 12 -7 3 5 14 8 24 6 9 -1 22 6 28 17 5 11 15 17 20 13 12 -7 7
-29 -7 -30 -5 0 -22 -7 -39 -14 -16 -7 -36 -12 -44 -11 -8 2 -10 -2 -5 -11 6
-10 4 -10 -9 1 -9 7 -14 18 -10 24 3 6 1 7 -6 3 -9 -6 -9 -11 -1 -21 6 -8 7
-14 1 -17 -10 -3 6 -117 19 -131 4 -5 17 -4 29 2 14 8 21 8 21 1 0 -5 4 -10
10 -10 5 0 6 8 3 18 -6 15 -5 16 12 2 17 -14 18 -13 12 4 -6 14 -4 17 8 12 8
-3 15 -1 15 4 0 5 10 12 23 16 12 3 34 15 50 26 15 11 27 14 27 8 0 -6 5 -8
10 -5 6 4 7 11 4 17 -4 6 -2 8 4 4 5 -3 13 0 15 6 4 10 6 10 6 1 1 -7 6 -13
12 -13 5 0 8 4 5 9 -6 8 42 46 49 39 2 -2 -3 -14 -10 -28 -8 -14 -14 -19 -15
-12 0 17 -17 15 -17 -3 0 -8 5 -11 10 -8 6 4 8 0 4 -10 -3 -9 -1 -19 5 -23 6
-4 9 -3 5 2 -3 5 0 20 7 33 9 15 16 20 20 12 4 -6 2 -11 -4 -11 -6 0 -8 -4 -5
-10 3 -5 1 -10 -4 -10 -6 0 -10 -5 -9 -11 5 -21 -21 -20 -32 1 -7 12 -16 18
-23 13 -7 -4 -14 -8 -17 -8 -3 -1 -19 -8 -37 -18 -17 -9 -38 -14 -46 -11 -14
5 -33 -24 -22 -34 3 -3 5 0 5 8 0 10 4 10 17 -1 9 -8 14 -9 10 -3 -4 7 0 15 9
18 25 9 26 8 8 -18 -10 -16 -21 -23 -32 -19 -18 7 -17 5 12 -17 11 -8 17 -10
13 -3 -13 21 9 22 27 1 13 -15 21 -17 29 -9 18 18 31 12 15 -6 -8 -10 -18 -25
-22 -33 -5 -9 -2 -8 7 2 8 10 17 14 21 10 4 -4 7 -2 6 3 -1 6 -1 12 0 15 8 22
6 38 -5 34 -7 -3 -16 0 -20 6 -5 8 -11 8 -21 -1 -8 -7 -14 -7 -14 -1 0 17 24
29 55 27 48 -4 49 -4 32 -23 -10 -10 -15 -21 -12 -24 10 -10 -17 -68 -28 -61
-9 5 -9 3 -1 -8 11 -15 11 -28 -1 -76 -4 -19 -12 -30 -18 -26 -6 3 -7 1 -3 -6
8 -13 -51 -81 -71 -81 -21 0 -15 -21 20 -64 37 -45 50 -73 38 -80 -4 -3 -8
-49 -10 -103 -1 -54 -4 -110 -5 -126 -2 -15 1 -27 6 -27 5 0 6 -5 2 -12 -13
-20 -5 -181 9 -190 9 -6 9 -8 -2 -8 -10 0 -11 -3 -2 -13 6 -8 8 -17 4 -20 -10
-10 -10 -71 0 -78 5 -3 2 -9 -6 -12 -11 -4 -14 1 -13 18 2 16 -2 22 -13 20 -9
-1 -20 0 -26 4 -17 9 -35 10 -35 0 0 -5 6 -9 13 -9 8 0 7 -4 -3 -10 -18 -12
-30 -13 -29 -2 3 18 -2 29 -13 30 -7 1 -24 3 -38 6 -14 2 -31 -2 -39 -8 -12
-9 -13 -8 -8 6 4 13 2 15 -10 11 -12 -5 -14 -3 -8 7 6 9 4 11 -5 5 -7 -4 -16
-2 -21 6 -7 12 -9 12 -9 0 0 -9 -7 -6 -20 9 -11 13 -20 20 -20 15 0 -4 -8 -1
-18 6 -14 11 -15 11 -4 -1 16 -19 16 -35 -1 -21 -8 6 -17 7 -21 3 -5 -4 -7 0
-6 8 4 25 0 44 -7 37 -3 -4 -12 1 -19 11 -7 9 -23 17 -35 17 -15 0 -28 9 -36
25 -10 19 -13 21 -13 7 0 -10 -5 -15 -10 -12 -6 4 -8 15 -5 26 4 10 3 19 -2
19 -5 0 -10 -8 -11 -17 -5 -43 -10 -56 -25 -65 -9 -5 -17 -14 -17 -21 0 -8 3
-8 9 2 6 9 11 10 15 2 4 -6 4 -11 0 -11 -3 0 1 -11 10 -24 9 -14 12 -27 7 -31
-5 -3 -12 0 -14 5 -3 6 -4 5 -3 -2 2 -7 9 -13 17 -13 8 0 14 -4 14 -10 0 -5 9
-22 19 -38 14 -20 22 -25 31 -17 16 13 47 -24 38 -47 -7 -17 -18 -8 -18 15 0
17 -7 19 -38 7 -12 -5 -17 -3 -15 6 3 14 -39 22 -47 8 -3 -4 6 -6 19 -3 21 3
24 1 21 -16 -2 -11 1 -23 7 -26 6 -4 8 -3 5 3 -4 6 5 15 18 21 15 7 25 8 25 2
0 -6 -6 -10 -12 -10 -8 -1 -5 -6 5 -15 11 -7 26 -11 35 -8 14 5 15 4 4 -8 -7
-8 -20 -14 -29 -14 -11 0 -17 -9 -18 -27 -1 -15 2 -25 6 -22 4 2 6 13 4 24 -3
13 2 18 16 17 22 -1 25 -13 7 -20 -10 -4 -10 -6 0 -6 7 -1 15 6 18 14 4 8 10
12 16 9 5 -3 4 -12 -3 -20 -10 -12 -9 -17 0 -27 10 -9 11 -8 6 5 -5 14 -2 16
15 13 28 -5 39 -15 17 -15 -26 0 -20 -18 11 -34 15 -8 21 -15 13 -16 -11 0
-10 -4 4 -14 18 -13 18 -13 -1 -25 -18 -12 -18 -12 0 -7 14 5 17 2 12 -10 -9
-24 3 -35 25 -24 11 6 25 8 32 3 8 -5 4 -9 -13 -14 -25 -7 -25 -7 -2 -8 16 -1
21 -5 16 -13 -4 -7 2 -5 13 5 19 16 21 16 27 2 9 -23 7 -32 -3 -17 -6 10 -10
10 -21 -3 -11 -13 -10 -15 3 -10 10 4 18 -1 22 -15 4 -12 12 -19 18 -17 20 7
47 -12 41 -28 -4 -8 -1 -15 5 -15 6 0 10 5 8 11 -1 6 3 13 9 16 6 2 11 -3 11
-12 0 -8 -5 -15 -11 -15 -6 0 -5 -5 2 -12 9 -9 16 -8 31 6 17 15 19 15 25 1 3
-9 2 -13 -3 -10 -5 3 -12 2 -15 -3 -3 -5 0 -9 7 -10 28 -2 46 -9 62 -22 9 -7
15 -9 14 -4 -4 16 13 44 23 38 5 -3 4 -12 -3 -20 -6 -8 -9 -17 -5 -21 3 -3 6
-1 6 6 0 7 4 10 9 6 5 -3 13 0 17 6 4 7 3 9 -4 5 -6 -3 -9 0 -8 9 3 20 16 31
17 14 1 -8 2 -26 3 -40 2 -16 -2 -26 -10 -26 -7 0 -11 4 -8 9 3 4 -5 6 -18 4
-13 -2 -35 3 -50 10 -15 8 -31 13 -35 12 -11 -2 -58 18 -89 38 -19 13 -22 19
-12 26 9 6 6 7 -9 3 -17 -5 -31 3 -61 34 -22 23 -44 41 -48 41 -5 0 -1 -5 8
-10 16 -10 16 -13 1 -48 -19 -46 -40 -116 -48 -162 -12 -63 -6 -204 10 -265
17 -66 121 -286 165 -350 103 -148 274 -249 465 -273 33 -4 60 -12 60 -17 1
-6 4 -20 9 -32 4 -13 4 -28 0 -35 -20 -33 -1 -60 23 -33 4 4 3 5 -3 2 -7 -4
-14 0 -18 8 -8 22 9 26 30 7 10 -10 40 -27 66 -37 25 -11 45 -22 43 -25 -4 -7
134 -2 154 5 7 3 19 1 26 -5 10 -8 15 -8 21 1 5 8 3 9 -6 4 -9 -5 -11 -4 -6 4
4 6 11 9 16 6 9 -6 20 2 81 58 22 19 38 26 53 22 19 -5 19 -5 3 5 -17 11 -15
30 4 30 6 0 7 -5 3 -12 -5 -7 -3 -8 6 -3 10 6 9 11 -5 22 -11 7 -14 13 -9 13
5 0 11 12 12 27 1 14 4 28 5 30 2 1 22 -13 44 -31 94 -81 251 -149 371 -161
31 -4 69 -8 84 -11 15 -2 33 2 41 11 18 17 31 7 16 -11 -14 -17 17 -32 33 -16
8 8 4 9 -13 5 -19 -4 -21 -3 -12 7 8 9 23 10 57 2 29 -6 48 -6 52 0 3 5 16 2
30 -6 25 -17 48 -22 24 -5 -13 9 -13 10 0 8 25 -4 96 20 123 41 14 11 31 19
39 17 7 -2 10 -2 6 0 -5 3 -8 9 -8 14 0 6 5 7 10 4 6 -3 10 0 10 7 0 7 35 33
76 58 155 92 308 278 356 433 51 166 47 354 -11 477 -15 32 -20 35 -57 34 -29
-1 -41 2 -41 12 0 8 4 14 9 14 4 0 7 3 7 8 -4 21 3 32 19 32 15 -1 15 -2 -3
-17 -17 -13 -17 -15 -2 -10 11 4 20 1 23 -8 4 -8 11 -15 16 -15 6 0 5 6 -2 15
-9 10 -9 15 -1 15 10 0 15 -13 12 -32 0 -5 3 -8 9 -8 5 0 10 7 10 15 0 8 5 15
11 15 5 0 8 -4 4 -9 -3 -5 0 -13 6 -17 8 -5 9 -3 4 6 -6 10 -4 12 8 7 9 -3 16
-3 16 1 -3 20 2 25 12 12 8 -12 9 -9 4 10 l-6 25 16 -25 c9 -14 14 -17 11 -8
-3 10 -1 20 4 23 6 4 10 -2 11 -12 0 -11 3 -13 6 -5 2 6 10 9 15 6 6 -4 8 -2
5 3 -8 12 17 36 26 26 4 -3 9 2 13 11 3 9 10 13 15 10 5 -3 6 -10 3 -16 -4 -7
-2 -8 5 -4 9 6 9 11 0 22 -14 17 2 19 21 2 12 -11 12 -10 2 3 -10 13 -9 19 2
28 11 10 17 8 25 -6 6 -10 11 -13 11 -6 0 6 -4 15 -10 18 -5 3 -10 11 -10 17
0 6 7 5 17 -3 14 -12 16 -12 8 0 -6 10 -4 13 6 9 10 -4 15 1 16 16 0 11 -1 15
-4 9 -3 -7 -9 -13 -14 -13 -6 0 -5 8 1 20 12 22 29 22 46 1 9 -11 12 -12 19
-1 5 9 4 11 -3 6 -19 -11 -14 5 6 21 16 13 15 13 -4 4 -37 -18 -59 20 -26 45
25 19 34 17 20 -5 -7 -11 -16 -17 -22 -14 -5 3 -6 1 -2 -5 4 -6 13 -9 21 -6 8
4 13 10 10 14 -3 4 2 13 10 20 8 7 15 9 15 5 0 -4 6 -2 13 4 8 6 17 8 20 4 4
-3 7 -1 7 6 0 7 -10 10 -24 7 -17 -3 -27 1 -31 12 -6 15 -8 14 -18 -5 l-12
-23 -14 22 c-11 18 -11 20 3 15 8 -3 18 -2 21 4 4 5 11 7 16 4 5 -4 9 -1 9 4
0 6 -6 11 -13 11 -8 0 -22 9 -32 20 -10 11 -13 20 -8 20 6 0 16 -7 23 -15 7
-8 16 -13 20 -10 9 6 22 -23 16 -34 -3 -4 6 -7 19 -7 13 0 21 4 19 8 -3 5 -10
5 -16 2 -6 -4 -9 -1 -6 7 3 8 12 13 22 11 14 -3 21 9 17 31 0 4 5 7 11 7 7 0
22 8 33 17 20 16 16 15 -28 -2 -8 -4 -14 1 -14 10 0 9 6 14 14 11 7 -3 17 3
23 14 6 12 17 17 28 14 13 -4 14 -4 4 4 -11 7 -11 10 3 16 9 3 14 10 11 15 -3
5 1 12 10 15 8 3 12 10 9 16 -3 6 1 13 10 16 14 6 13 9 -7 23 -28 19 -33 37
-12 45 10 4 14 0 12 -10 -2 -9 7 -23 18 -30 19 -13 23 -12 38 11 9 14 12 25 6
25 -5 0 -10 -5 -10 -11 0 -5 -4 -7 -10 -4 -6 3 -7 -1 -4 -10 4 -10 2 -14 -8
-10 -14 5 -23 45 -10 44 18 -3 35 2 29 8 -4 3 -3 11 3 18 6 7 4 20 -4 37 -9
17 -10 31 -4 44 9 19 9 19 -6 0 -8 -10 -13 -23 -10 -28 3 -5 0 -15 -6 -23 -15
-19 -37 -20 -23 -2 5 6 10 23 11 37 1 19 -1 21 -8 10 -5 -8 -10 -11 -10 -5 0
13 -23 -12 -26 -29 -1 -8 4 -12 10 -10 7 3 13 -2 13 -11 0 -18 -5 -18 -36 -1
-21 12 -24 21 -26 77 -6 176 -69 325 -188 443 -54 54 -147 123 -147 109 0 -4
-5 -1 -10 7 -7 11 -10 11 -10 2 0 -7 -5 -10 -12 -6 -7 4 -8 3 -4 -5 4 -6 12
-9 17 -6 15 10 10 -12 -9 -35 l-19 -23 -41 41 c-22 22 -43 38 -46 34 -3 -3 -6
1 -6 9 0 8 6 21 13 28 10 10 9 12 -3 9 -9 -2 -15 5 -15 17 -1 11 -3 25 -6 30
-8 13 -22 65 -24 87 -1 10 -8 25 -16 35 -9 11 -10 14 -1 9 7 -4 12 -2 12 5 0
7 3 9 7 6 3 -4 12 -2 20 4 8 7 13 8 13 1 0 -15 -26 -33 -36 -24 -4 4 -2 -1 5
-11 8 -9 11 -20 8 -24 -9 -9 13 -44 24 -38 5 4 9 2 9 -4 0 -5 -5 -12 -10 -14
-6 -3 -5 -4 2 -3 14 3 18 26 4 25 -15 -1 -26 25 -14 32 6 4 23 5 37 4 14 -2
21 -2 14 1 -13 6 -6 34 9 34 5 0 6 -4 3 -10 -3 -5 -1 -10 5 -10 6 0 8 -5 4
-12 -4 -7 -3 -8 4 -4 8 5 9 13 2 25 -9 18 -4 31 12 31 5 0 6 -4 3 -10 -3 -5
-2 -10 3 -10 5 0 10 12 10 26 0 18 -5 24 -15 20 -18 -7 -55 12 -48 25 4 5 1 9
-4 9 -6 0 -11 -4 -11 -10 0 -5 -5 -10 -11 -10 -8 0 -8 5 1 15 9 10 9 15 1 15
-6 0 -11 -4 -11 -9 0 -14 -33 -6 -38 9 -3 7 0 10 6 6 6 -3 13 -2 17 3 3 6 -3
8 -14 6 -11 -2 -22 3 -25 11 -3 9 -10 13 -15 9 -12 -7 -10 -45 2 -45 5 0 6 10
2 23 -5 20 -5 20 6 4 7 -13 8 -22 1 -29 -6 -6 -8 -17 -5 -25 5 -12 7 -12 14
-1 6 9 8 6 6 -10 -2 -32 -12 -27 -33 16 -34 71 -27 100 19 75 18 -9 34 -18 37
-18 21 -3 69 -38 65 -45 -4 -6 -1 -10 4 -10 6 0 11 5 11 11 0 6 13 1 29 -10
15 -11 31 -18 35 -14 3 3 6 -2 7 -13 0 -10 3 -14 5 -7 8 19 34 4 26 -15 -5
-15 -3 -15 10 -4 14 11 20 10 36 -6 20 -20 20 -20 27 14 3 19 6 35 6 36 0 2 4
20 8 41 6 23 5 39 -1 43 -7 4 -6 9 1 14 7 3 -5 7 -24 7 -20 0 -40 5 -45 13 -4
7 -13 9 -20 5 -9 -6 -11 -4 -5 5 6 10 4 12 -9 7 -10 -4 -15 -3 -11 3 4 6 -7
10 -24 10 -17 0 -31 4 -31 8 0 5 18 9 40 9 21 0 37 -3 35 -7 -3 -4 6 -15 20
-24 21 -14 24 -14 19 -1 -4 8 -13 15 -21 15 -8 0 -12 4 -8 9 8 14 46 9 41 -5
-2 -6 0 -17 4 -24 6 -9 8 -1 7 21 -2 18 -6 40 -10 47 -5 6 -4 12 2 12 5 0 13
-5 16 -10 4 -6 11 -8 16 -5 5 4 9 2 9 -4 0 -5 -5 -12 -10 -14 -6 -3 -5 -4 2
-3 7 2 13 9 13 17 0 8 -6 13 -13 11 -8 -1 -16 7 -19 18 -3 11 -10 20 -17 20
-6 1 0 8 14 16 14 8 17 13 8 10 -10 -3 -20 -1 -23 4 -3 5 -16 7 -29 4 -13 -2
-29 2 -36 10 -6 8 -19 12 -27 9 -11 -5 -14 -3 -8 6 6 10 3 11 -14 2 -17 -10
-22 -9 -27 4 -4 11 -15 13 -38 10 -23 -4 -27 -3 -16 5 9 6 10 10 3 10 -6 0
-18 -8 -25 -17 -17 -24 -35 -26 -42 -7 -4 11 -2 15 7 11 7 -3 21 1 32 9 17 13
57 10 80 -5 6 -4 17 -7 25 -6 8 1 27 -5 43 -12 15 -7 27 -12 27 -10 0 2 21 -1
47 -8 48 -12 66 -30 38 -38 -11 -4 -11 -4 2 -3 11 1 17 9 16 21 -1 11 -3 50
-4 86 -2 63 -3 66 -26 63 -12 -1 -21 2 -17 7 3 5 -3 8 -13 7 -34 -3 -53 2 -53
13 0 5 4 8 9 5 14 -9 42 5 34 17 -3 6 -1 7 6 3 6 -4 9 -11 7 -15 -3 -4 4 -12
15 -19 18 -12 19 -11 7 10 -7 13 -17 26 -23 30 -5 4 -8 8 -5 9 3 0 13 2 23 4
12 2 17 -1 14 -9 -3 -7 -2 -19 3 -25 5 -9 8 -4 8 13 0 15 -5 29 -9 32 -5 3 -7
10 -4 15 8 11 -24 170 -36 185 -12 15 -37 21 -66 16z m-58 -178 c57 -4 85 -8
85 -15 0 -3 11 -5 25 -4 13 2 30 -3 36 -11 7 -9 8 -14 3 -12 -14 4 -55 -28
-46 -36 4 -5 0 -7 -8 -6 -8 1 -24 2 -35 1 -17 -1 -18 -3 -5 -11 13 -8 13 -10
-2 -10 -9 0 -20 5 -23 10 -4 6 -15 8 -25 5 -11 -4 -20 1 -24 12 -6 15 -9 15
-17 3 -9 -13 -10 -13 -6 0 2 8 10 14 16 13 6 -2 11 1 11 6 0 17 33 5 41 -15 4
-10 8 -14 8 -7 1 6 10 10 20 8 11 -2 27 2 36 9 17 12 16 13 -1 13 -11 0 -24
-4 -31 -9 -8 -7 -11 -3 -10 11 1 15 6 20 17 15 24 -10 60 -12 55 -3 -3 4 -13
8 -23 8 -9 0 -29 2 -45 5 -16 2 -33 -2 -41 -10 -13 -12 -16 -11 -22 8 -6 20
-8 18 -26 -20 -13 -26 -24 -39 -32 -35 -6 4 -14 8 -18 8 -15 0 -17 13 -4 24
11 9 16 9 22 0 5 -8 3 -9 -6 -4 -9 6 -11 4 -5 -5 6 -10 12 -8 27 9 10 13 18
28 18 35 -1 6 -7 0 -14 -13 -10 -19 -14 -20 -19 -8 -3 9 1 18 9 21 9 3 12 11
8 17 -5 8 -3 9 7 3 8 -4 28 -9 44 -10z m-2229 -39 c17 -17 17 -18 2 -12 -26 9
-22 -2 5 -14 21 -9 21 -9 -3 -4 -14 4 -30 7 -37 7 -7 1 -14 7 -17 14 -3 8 -13
11 -23 7 -16 -5 -16 -4 1 9 24 19 49 16 72 -7z m2268 -6 c-3 -5 -10 -7 -15 -3
-5 3 -7 10 -3 15 3 5 10 7 15 3 5 -3 7 -10 3 -15z m-2411 -6 c-3 -8 2 -11 16
-8 11 2 24 -1 27 -7 4 -6 2 -8 -4 -4 -6 3 -13 2 -17 -3 -8 -14 -46 -9 -41 4 2
7 -2 12 -9 12 -7 0 -11 -7 -8 -16 4 -14 4 -14 -6 -1 -9 12 -11 13 -11 1 0 -8
-3 -12 -6 -9 -3 3 0 15 6 25 14 21 61 27 53 6z m-78 -32 c-3 -6 -11 -11 -16
-11 -5 0 -4 6 3 14 14 16 24 13 13 -3z m775 -45 c0 -3 -4 -8 -10 -11 -5 -3
-10 -1 -10 4 0 6 5 11 10 11 6 0 10 -2 10 -4z m1094 -24 c3 -5 -1 -9 -9 -9 -8
0 -12 4 -9 9 3 4 7 8 9 8 2 0 6 -4 9 -8z m-1469 -95 c25 -21 26 -25 10 -23
-11 2 -27 -2 -35 -8 -31 -25 -67 -35 -79 -23 -9 9 -11 7 -6 -8 6 -16 5 -17 -4
-5 -10 14 -16 7 -11 -15 1 -5 -2 -7 -5 -3 -4 4 -20 1 -36 -7 -15 -8 -36 -12
-45 -8 -13 5 -15 3 -9 -8 4 -8 0 -7 -11 3 -13 13 -15 21 -7 29 6 6 9 18 6 25
-4 10 0 12 11 8 18 -7 17 -24 -4 -42 -13 -11 -11 -11 9 -2 16 8 21 9 17 1 -4
-6 -2 -11 3 -11 14 0 14 13 0 27 -9 9 -7 12 10 10 12 -1 20 -6 17 -14 -3 -7 1
-10 9 -7 8 3 13 9 12 12 -1 4 2 8 7 9 5 0 13 8 18 17 5 9 15 13 21 10 7 -4 9
-4 5 1 -4 4 0 14 10 21 25 20 38 17 19 -4 -20 -21 -22 -32 -6 -32 5 0 8 4 4 9
-3 6 4 8 16 6 12 -2 19 -1 15 2 -4 4 4 13 16 20 13 8 16 12 8 10 -22 -6 -56
13 -40 23 9 5 9 9 1 14 -6 4 -11 3 -11 -3 0 -5 -7 -8 -15 -7 -19 3 -32 16 -16
16 7 0 9 5 5 11 -4 8 -9 7 -15 -2 -8 -12 -11 -11 -19 1 -6 10 -10 11 -10 3 0
-7 -7 -10 -17 -7 -16 5 -16 4 0 -6 14 -9 16 -15 6 -26 -6 -8 -16 -14 -21 -14
-6 0 -6 6 1 14 9 10 9 16 1 21 -14 9 -40 -24 -33 -42 4 -9 0 -11 -11 -7 -18 7
-17 24 4 42 13 11 12 12 -6 3 -12 -6 -25 -7 -30 -3 -5 4 -2 -1 5 -10 8 -11 9
-18 3 -18 -6 0 -14 4 -17 10 -4 6 -16 4 -31 -6 -17 -12 -21 -20 -15 -28 7 -8
4 -16 -9 -24 -17 -10 -19 -9 -15 18 2 22 0 28 -8 23 -20 -12 -38 -12 -34 0 3
7 10 11 17 9 7 -2 17 3 21 10 7 10 9 10 9 1 0 -7 5 -13 11 -13 5 0 7 5 4 10
-3 6 -3 10 2 11 8 1 15 2 61 13 12 3 30 8 40 10 9 2 29 9 43 14 15 6 29 8 32
5 3 -2 14 0 24 6 15 8 23 5 43 -18 14 -15 39 -39 55 -54z m1852 49 c-17 -13
-17 -14 0 -21 31 -14 45 -14 40 -1 -3 7 1 13 9 13 8 0 12 -2 9 -5 -2 -2 2 -17
10 -33 18 -33 18 -39 4 -39 -5 0 -7 5 -3 12 4 7 3 8 -4 4 -8 -5 -10 -2 -6 8 7
17 -11 22 -21 6 -3 -5 -11 -10 -17 -10 -7 0 -7 4 1 13 8 10 7 14 -3 14 -8 0
-13 -8 -11 -18 3 -12 -1 -16 -11 -12 -7 3 -11 10 -8 15 4 6 -1 6 -13 -1 -11
-6 -24 -7 -28 -3 -5 4 -5 2 -1 -5 4 -7 14 -9 23 -6 11 4 14 3 9 -5 -5 -8 2
-11 24 -8 21 2 33 -1 37 -11 3 -8 13 -11 24 -8 15 5 18 2 13 -12 -3 -10 -2
-14 3 -8 11 13 36 18 29 6 -6 -10 26 -25 54 -26 8 -1 14 -7 12 -14 -1 -7 2
-10 8 -6 8 5 7 11 -1 21 -7 9 -8 14 -1 14 6 0 13 -4 17 -9 7 -12 45 -10 45 2
0 4 6 5 13 0 6 -4 23 -8 37 -8 14 0 25 -4 25 -9 0 -6 -27 -10 -60 -11 -33 -1
-64 -3 -70 -5 -5 -2 -23 2 -38 8 -16 7 -33 12 -38 12 -5 0 -9 5 -9 10 0 6 -6
10 -12 8 -7 -1 -23 3 -35 10 -13 7 -23 10 -23 6 0 -3 -7 -1 -15 6 -8 7 -15 10
-15 6 0 -4 -15 1 -32 11 -18 9 -39 16 -47 14 -7 -1 -2 9 10 22 13 13 26 20 27
15 7 -15 20 -8 17 10 -3 20 12 42 29 42 6 0 3 -7 -7 -14z m-1947 -39 c0 -7 4
-6 10 3 5 8 10 10 10 4 0 -12 -38 -41 -54 -42 -5 0 -13 -7 -18 -15 -4 -8 -14
-14 -21 -13 -30 5 -57 18 -57 27 0 5 -4 9 -9 9 -4 0 -7 -10 -7 -22 2 -26 -22
-61 -35 -52 -11 6 -12 24 -1 23 4 -1 14 -1 22 0 13 1 13 2 0 11 -13 9 -13 11
0 20 9 6 10 10 3 10 -17 0 -58 -60 -41 -61 10 0 10 -2 1 -6 -7 -2 -13 -9 -13
-15 0 -6 6 -6 15 2 12 10 15 10 16 -1 0 -10 2 -11 6 -1 6 16 20 15 26 -2 4
-11 1 -13 -10 -9 -12 5 -14 3 -8 -8 6 -11 5 -12 -6 -1 -19 17 -29 15 -22 -5 3
-11 -2 -9 -12 6 -18 24 -19 24 -35 5 -19 -22 -44 -30 -37 -12 2 7 -3 22 -12
32 -9 11 -10 16 -4 12 7 -4 22 -2 34 5 17 9 20 8 14 -2 -6 -8 -4 -10 5 -4 9 6
11 4 5 -5 -5 -9 -4 -11 4 -6 6 4 9 12 6 17 -4 5 -1 9 5 9 6 0 9 4 5 9 -3 6 4
15 15 21 17 9 19 14 9 26 -10 12 -9 13 5 8 9 -4 16 -3 14 2 -2 5 -1 11 2 12 8
6 60 -20 60 -30 0 -4 4 -8 9 -8 5 0 8 11 7 25 -2 14 4 30 13 37 14 11 14 11 3
-4 -10 -12 -10 -18 -1 -23 8 -6 8 -9 -1 -15 -8 -5 -7 -9 5 -13 9 -4 13 -3 10
3 -3 6 -1 10 5 10 6 0 9 4 6 9 -3 5 1 14 9 21 8 7 12 17 9 22 -4 6 3 5 15 -1
11 -7 21 -17 21 -24z m1240 7 c0 -8 -19 -13 -24 -6 -3 5 1 9 9 9 8 0 15 -2 15
-3z m846 -3 c16 13 18 1 4 -21 -8 -12 -11 -13 -19 -1 -6 9 -11 10 -15 2 -4 -6
-2 -11 3 -11 6 0 10 -6 9 -12 -2 -7 4 -13 12 -13 8 0 14 6 13 13 -2 6 2 12 7
12 6 0 10 -6 10 -14 0 -8 -4 -18 -10 -21 -5 -3 -10 -12 -10 -18 0 -7 5 -4 11
6 6 9 14 15 20 12 5 -4 9 -2 9 2 0 5 10 9 21 10 17 2 19 -1 10 -10 -6 -6 -11
-16 -11 -21 0 -6 7 0 16 12 8 12 20 22 26 22 7 0 7 -4 -1 -13 -8 -10 -7 -14 3
-14 16 0 15 22 -2 39 -9 9 -12 9 -12 -1 0 -7 -5 -9 -10 -6 -6 4 -8 12 -4 18 3
7 -2 3 -10 -7 -16 -20 -22 -11 -8 10 13 20 79 4 67 -17 -7 -10 8 -12 19 -2 13
13 38 12 33 -2 -3 -7 -1 -17 5 -23 17 -17 -30 -33 -64 -22 -20 6 -34 5 -41 -5
-5 -6 -12 -4 -20 6 -11 14 -15 15 -31 4 -19 -14 -50 -9 -40 6 3 5 0 10 -5 10
-6 1 -16 2 -22 3 -7 0 -13 13 -15 29 -1 15 1 25 7 22 5 -4 12 2 16 11 4 12 8
14 11 6 3 -10 7 -10 18 -1z m47 -32 c-5 -18 -6 -18 -18 -2 -7 9 -11 23 -8 30
8 21 32 -4 26 -28z m-2418 11 c-6 -9 8 -14 28 -11 4 0 7 -5 7 -11 0 -9 4 -8
11 2 9 13 10 13 6 0 -5 -15 -8 -16 -42 -5 -11 3 -5 -2 13 -11 37 -20 40 -29
12 -31 -11 -1 -18 2 -15 7 3 5 -4 14 -15 20 -11 6 -17 16 -14 22 5 7 1 9 -9 5
-10 -3 -17 -2 -17 3 0 5 8 11 18 13 9 3 18 5 20 6 2 0 0 -3 -3 -9z m2282 -7
c-4 -3 -1 -13 6 -22 11 -14 10 -14 -5 -2 -16 12 -16 31 -1 31 4 0 3 -3 0 -7z
m-1268 -77 c-3 -3 -11 5 -18 17 -13 21 -12 21 5 5 10 -10 16 -20 13 -22z m-44
4 c3 -5 1 -10 -4 -10 -6 0 -11 5 -11 10 0 6 2 10 4 10 3 0 8 -4 11 -10z m154
-24 c9 -11 9 -16 -1 -22 -7 -4 -10 -4 -6 1 4 4 3 14 -3 22 -6 7 -9 13 -6 13 2
0 10 -6 16 -14z m371 -31 c14 -19 14 -19 -2 -6 -10 7 -18 18 -18 24 0 6 1 8 3
6 1 -2 9 -13 17 -24z m-1178 -34 c-8 -4 -13 -11 -13 -15 3 -20 0 -26 -9 -21
-13 8 6 45 23 45 8 0 8 -3 -1 -9z m1938 -12 c0 -14 -17 -10 -23 5 -4 10 -1 13
9 9 7 -3 14 -9 14 -14z m-765 2 c3 -5 2 -12 -3 -15 -5 -3 -9 1 -9 9 0 17 3 19
12 6z m-1245 -112 c0 -3 -15 -5 -32 -4 -18 1 -42 -5 -53 -14 -18 -15 -19 -15
-6 2 7 9 10 17 5 17 -4 0 1 6 11 14 11 8 25 12 32 9 7 -3 13 1 13 8 0 12 29
-19 30 -32z m2093 28 c4 3 9 -2 13 -11 5 -12 10 -14 19 -6 10 8 16 7 24 -7 6
-10 11 -14 11 -10 0 5 5 5 10 2 12 -7 -36 -58 -57 -61 -22 -4 -23 13 -3 31 15
14 17 20 8 26 -7 4 -18 3 -25 -3 -7 -6 -14 -7 -14 -2 -1 5 -2 16 -3 24 0 8 -7
14 -14 12 -8 -1 -11 2 -7 8 5 8 11 8 19 1 7 -6 16 -8 19 -4z m-567 -53 c1 -9
0 -13 -4 -10 -3 4 -7 14 -8 22 -1 9 0 13 4 10 3 -4 7 -14 8 -22z m-1582 -35
c-3 -5 -10 -7 -15 -3 -5 3 -7 10 -3 15 3 5 10 7 15 3 5 -3 7 -10 3 -15z m1466
17 c0 -3 -4 -8 -10 -11 -5 -3 -10 -1 -10 4 0 6 5 11 10 11 6 0 10 -2 10 -4z
m-704 -413 c4 4 2 7 -4 7 -7 0 -12 4 -12 8 0 5 7 9 15 9 18 0 20 -33 3 -40 -7
-3 -4 -6 7 -6 17 -1 18 -3 5 -12 -12 -8 -12 -10 5 -8 48 4 56 0 46 -20 -6 -10
-8 -21 -4 -24 3 -4 -2 -9 -11 -13 -9 -3 -14 -10 -11 -14 3 -5 1 -11 -5 -15
-10 -6 -14 7 -10 35 1 8 -1 12 -5 8 -4 -4 -8 -18 -9 -30 -1 -14 -7 -23 -16
-22 -28 1 -69 23 -78 41 -12 22 -7 70 9 89 10 12 13 12 24 -2 9 -14 14 -14 20
-4 5 9 4 11 -3 6 -7 -4 -12 -1 -12 7 0 23 12 28 26 9 7 -9 16 -14 20 -9z m650
10 c-4 -10 -4 -14 0 -10 4 4 12 0 18 -9 10 -13 12 -13 12 5 0 11 -4 17 -8 15
-4 -3 -8 0 -8 6 0 7 6 10 13 7 7 -2 11 -19 10 -42 0 -21 2 -34 5 -29 4 5 13 9
20 8 6 -1 16 -2 21 -3 5 0 8 -9 6 -18 -2 -10 -4 -24 -4 -30 -1 -7 -8 -13 -16
-13 -8 0 -14 -6 -12 -12 1 -7 -5 -13 -13 -13 -8 0 -18 -4 -22 -10 -5 -6 -8 -5
-8 3 0 6 -5 12 -11 12 -5 0 -7 -4 -4 -10 4 -6 -2 -7 -17 -1 -13 4 -21 11 -18
14 3 3 -3 12 -12 19 -34 27 -20 94 26 116 29 14 29 14 22 -5z m-1108 -68 c-3
-3 -9 2 -12 12 -6 14 -5 15 5 6 7 -7 10 -15 7 -18z m37 -34 c3 -5 2 -12 -3
-15 -5 -3 -9 1 -9 9 0 17 3 19 12 6z m1443 -126 c-3 -3 -9 2 -12 12 -6 14 -5
15 5 6 7 -7 10 -15 7 -18z m-1598 -39 c0 -2 -8 -10 -17 -17 -16 -13 -17 -12
-4 4 13 16 21 21 21 13z m1114 -62 c3 -8 2 -12 -4 -9 -6 3 -10 10 -10 16 0 14
7 11 14 -7z m323 -19 c0 -8 -4 -12 -9 -9 -5 3 -6 10 -3 15 9 13 12 11 12 -6z
m1086 -69 c4 -10 1 -13 -8 -9 -8 3 -12 9 -9 14 7 12 11 11 17 -5z m-928 -8 c5
4 5 2 1 -5 -3 -6 -2 -14 4 -18 5 -3 10 -1 10 5 0 7 7 4 16 -5 9 -9 13 -19 10
-23 -4 -3 -11 0 -16 8 -7 11 -10 11 -10 2 0 -24 -59 17 -60 41 0 4 8 3 19 -2
10 -6 22 -7 26 -3z m-2245 -13 c8 -5 22 -10 30 -10 8 0 25 -10 38 -22 12 -13
17 -23 10 -23 -9 0 -9 -3 0 -12 15 -15 15 -28 1 -28 -5 0 -7 5 -4 10 3 6 2 10
-4 10 -20 0 -21 -19 0 -25 19 -6 20 -7 2 -21 -10 -7 -24 -14 -32 -14 -11 0
-10 4 4 13 13 10 15 16 6 21 -6 4 -9 12 -6 17 4 5 2 9 -2 9 -5 0 -13 -10 -18
-22 -6 -12 -17 -24 -25 -26 -11 -4 -10 1 4 17 11 11 15 21 10 21 -5 0 -1 5 9
11 9 5 21 8 25 5 4 -2 8 5 9 17 0 12 -1 16 -4 10 -5 -14 -24 -18 -22 -5 3 20
-2 33 -11 27 -6 -4 -10 -12 -9 -18 3 -24 -1 -38 -10 -33 -10 7 -9 25 2 44 5 6
4 12 -2 12 -5 0 -12 -6 -15 -12 -3 -7 -4 -2 -1 12 3 14 2 19 -1 12 -3 -6 -10
-10 -14 -7 -5 3 -12 0 -16 -6 -4 -8 -3 -9 4 -5 7 4 10 -3 7 -23 -3 -24 0 -29
13 -24 10 3 13 1 7 -4 -5 -4 -11 -15 -13 -23 -2 -11 1 -10 12 3 8 10 17 14 20
9 10 -16 -23 -37 -36 -24 -7 7 -8 12 -4 12 5 0 3 6 -3 14 -17 20 -23 63 -11
71 6 4 8 11 5 16 -8 11 24 7 45 -6z m890 -2 c0 -7 -4 -13 -10 -13 -5 0 -10 5
-10 11 0 8 -4 9 -13 0 -8 -6 -18 -7 -22 -3 -5 4 -5 2 -1 -5 4 -7 13 -10 20 -7
8 3 17 0 22 -7 5 -8 3 -10 -6 -4 -8 5 -11 4 -6 -3 12 -19 -10 -21 -24 -2 -13
19 -14 18 -29 -3 -9 -12 -15 -25 -13 -29 4 -13 -5 -9 -19 10 -7 9 -10 14 -5
10 4 -4 19 6 33 23 14 16 29 27 34 23 5 -3 9 -1 9 5 0 5 9 9 20 8 11 -1 20 -7
20 -14z m1105 -12 c-2 -11 3 -25 11 -31 7 -7 11 -16 8 -21 -3 -5 0 -9 6 -9 6
0 8 -5 4 -11 -4 -7 -1 -10 7 -7 8 3 22 1 33 -4 28 -15 97 -18 120 -6 28 15 34
26 31 54 -1 14 2 21 8 17 5 -3 28 -7 51 -8 56 -4 56 -4 56 -15 0 -6 11 -23 25
-38 14 -15 23 -33 20 -39 -2 -7 0 -13 5 -13 6 0 9 -3 9 -7 -1 -5 -1 -10 1 -13
14 -37 2 -67 -16 -38 -5 7 -3 8 5 3 8 -4 7 2 -3 17 -9 14 -13 29 -9 33 5 5 1
4 -8 -3 -9 -6 -19 -9 -22 -5 -9 9 -9 23 1 22 18 -3 32 2 32 11 0 6 -3 9 -7 9
-20 -3 -34 2 -28 10 3 5 -1 16 -9 24 -8 8 -12 17 -9 20 3 3 -8 5 -23 3 -16 -1
-37 1 -46 6 -10 5 -20 4 -24 -4 -5 -7 -3 -8 5 -3 7 4 5 -5 -5 -21 -11 -15 -13
-25 -6 -21 14 9 15 6 6 -17 -6 -15 -8 -15 -21 1 -13 17 -13 16 -4 -4 14 -28
14 -30 -4 -30 -9 0 -14 6 -11 13 7 18 -4 25 -25 14 -12 -7 -19 -6 -22 3 -4 9
-6 9 -6 0 -1 -6 4 -15 9 -18 6 -3 10 -10 10 -16 0 -5 -19 4 -41 21 -47 34 -85
35 -82 2 2 -16 -2 -20 -17 -17 -17 3 -19 1 -10 -16 6 -11 15 -17 19 -14 5 3 8
-6 7 -20 -1 -23 -20 -31 -22 -9 -2 21 -23 58 -25 44 -1 -8 -3 -19 -4 -25 -2
-5 -3 -14 -4 -20 -1 -5 -6 -3 -12 5 -8 11 -9 9 -3 -10 3 -14 3 -22 -1 -18 -5
4 -15 2 -23 -5 -13 -10 -14 -9 -4 9 9 17 8 21 -4 21 -8 0 -13 -6 -10 -12 2 -7
0 -18 -6 -26 -8 -11 -8 -9 -4 6 5 17 4 18 -7 5 -19 -24 -35 -22 -33 4 1 17 6
23 18 21 10 -2 20 1 23 6 4 5 11 7 16 4 5 -3 27 12 48 34 22 23 35 41 28 41
-7 0 -8 3 -2 8 6 4 12 16 13 27 2 11 1 17 -3 13 -4 -4 -15 7 -25 24 -12 24
-14 35 -6 45 16 18 25 16 21 -6z m1220 9 c-3 -5 -1 -10 4 -10 8 0 8 -6 0 -18
-7 -10 -18 -19 -25 -19 -7 0 -11 4 -8 9 3 4 0 8 -5 8 -6 0 -11 -4 -11 -8 0 -5
-10 -14 -22 -20 -13 -6 -17 -11 -10 -11 7 -1 11 -5 7 -10 -3 -6 4 -15 15 -21
11 -6 18 -15 15 -21 -4 -5 -11 -7 -16 -4 -5 4 -9 1 -9 -4 0 -6 6 -11 13 -11 8
0 7 -3 -3 -9 -8 -6 -17 -8 -21 -5 -4 2 -9 -3 -12 -11 -4 -10 -1 -12 11 -8 9 3
2 -5 -15 -19 -18 -14 -30 -27 -27 -30 3 -4 -3 -5 -13 -4 -10 0 -17 -4 -16 -11
1 -6 -3 -13 -10 -16 -8 -3 -13 4 -13 19 0 14 5 23 11 20 7 -2 18 0 26 6 12 8
11 9 -2 5 -8 -3 -21 3 -27 14 -15 23 -9 24 23 3 22 -14 24 -14 35 5 6 12 8 21
4 21 -4 0 3 11 15 24 13 14 20 30 16 36 -6 9 -10 9 -16 -1 -4 -7 -11 -10 -14
-7 -4 4 -3 13 1 20 12 19 14 38 3 38 -5 0 -9 5 -9 11 0 5 6 7 13 3 6 -4 8 -3
4 1 -12 14 -36 14 -33 2 2 -7 1 -9 -1 -4 -3 4 -9 7 -15 7 -6 0 -6 -6 2 -15 7
-8 16 -12 21 -9 5 3 9 1 9 -5 0 -20 -19 -21 -33 0 -10 13 -17 17 -22 9 -4 -6
-1 -17 5 -25 7 -8 10 -15 7 -15 -3 0 -14 -3 -24 -6 -13 -4 -14 -3 -5 3 11 8
10 12 -1 21 -11 9 -13 7 -12 -11 1 -12 -3 -25 -9 -29 -8 -6 -6 -11 4 -18 8 -5
11 -10 6 -10 -5 0 -3 -7 4 -15 7 -8 8 -15 2 -15 -24 0 -38 58 -20 86 4 6 1 11
-7 11 -8 0 -13 -5 -12 -10 1 -5 -4 -12 -11 -14 -8 -3 -10 1 -6 12 6 14 43 36
66 39 3 1 17 10 30 21 22 20 58 23 58 5 0 -14 51 -4 68 14 18 18 26 21 17 6z
m-2061 -22 c-3 -4 0 -8 5 -8 6 0 11 -5 11 -11 0 -6 -7 -8 -16 -5 -8 3 -12 2
-9 -4 3 -6 2 -10 -4 -10 -5 0 -8 -11 -5 -25 3 -20 1 -23 -13 -19 -16 5 -16 4
-3 -6 13 -10 12 -11 -3 -6 -12 4 -16 2 -11 -6 4 -7 3 -8 -4 -4 -8 5 -10 1 -5
-10 4 -12 3 -15 -5 -10 -7 4 -10 2 -6 -7 3 -8 -2 -14 -11 -14 -18 0 -18 2 -4
30 10 21 10 21 -5 3 -10 -12 -16 -15 -16 -7 0 9 -6 11 -17 6 -10 -4 -25 -8
-33 -9 -8 -1 -25 -7 -36 -14 -29 -16 -40 -1 -12 15 l23 14 -25 -5 c-14 -3 -19
-3 -12 0 6 3 9 10 6 16 -4 6 1 6 13 -1 11 -6 23 -7 27 -4 3 3 6 1 6 -5 0 -7 5
-12 11 -12 5 0 8 4 5 9 -3 5 8 8 24 7 17 -1 30 2 30 7 0 5 6 7 14 4 23 -9 57
41 57 84 0 9 7 16 14 16 8 0 12 -4 9 -9z m-1169 -18 c3 -5 1 -10 -4 -10 -6 0
-11 5 -11 10 0 6 2 10 4 10 3 0 8 -4 11 -10z m878 -11 c21 21 30 11 11 -11
-10 -12 -14 -19 -9 -16 6 4 18 0 29 -7 14 -11 16 -17 6 -32 -10 -15 -11 -16
-6 -1 3 10 0 20 -7 24 -7 4 -9 4 -5 -1 9 -9 -9 -35 -23 -35 -5 0 -2 12 8 26
17 27 17 27 -5 15 -23 -12 -46 -6 -37 10 7 10 -8 12 -18 2 -4 -3 0 -11 9 -18
14 -10 14 -12 -2 -26 -16 -13 -17 -12 -11 4 4 10 3 16 -2 13 -5 -3 -12 1 -15
10 -3 8 -10 12 -16 9 -5 -3 -10 1 -10 10 0 13 4 14 20 5 11 -6 21 -8 21 -5 1
3 2 8 3 13 5 25 18 32 33 16 11 -11 19 -12 26 -5z m327 -28 c-5 -11 -12 -35
-14 -53 -2 -18 -4 -36 -5 -40 -2 -14 -18 -8 -18 7 0 8 4 12 9 9 4 -3 8 0 8 6
0 7 -8 9 -19 5 -15 -4 -19 -2 -16 12 2 10 4 20 6 23 1 3 3 11 3 18 1 7 10 23
21 36 16 18 22 21 28 10 4 -8 3 -23 -3 -33z m1122 1 c16 -16 20 -52 6 -52 -6
0 -3 -9 7 -20 10 -11 22 -17 28 -13 6 3 7 1 3 -5 -4 -7 -2 -12 3 -12 6 0 10
-3 10 -7 -1 -5 0 -10 1 -13 1 -3 3 -17 4 -32 1 -18 -2 -24 -8 -18 -5 5 -10 18
-11 28 -2 26 -31 66 -40 53 -3 -6 -1 -11 6 -11 7 0 10 -3 6 -6 -3 -3 -14 -1
-24 5 -14 8 -14 10 -3 11 13 0 13 1 0 10 -8 5 -11 10 -6 10 5 0 2 8 -5 17 -10
11 -10 14 -1 9 26 -15 34 7 8 23 -14 10 -23 21 -19 26 5 4 2 5 -5 1 -7 -4 -10
-12 -7 -17 8 -11 -6 -12 -24 0 -7 5 -11 13 -8 18 8 13 65 9 79 -5z m798 1 c12
10 12 9 1 -5 -16 -21 -5 -42 17 -33 12 4 10 -1 -6 -18 -12 -13 -19 -27 -15
-32 5 -4 2 -4 -6 0 -11 6 -13 4 -8 -9 6 -14 3 -15 -14 -6 -11 6 -17 16 -13 21
3 6 -2 9 -11 7 -12 -2 -19 5 -21 20 -4 22 3 26 41 23 17 -2 17 0 5 8 -8 6 -11
11 -6 11 5 0 2 8 -5 18 -13 16 -13 16 7 0 16 -14 23 -15 34 -5z m-2975 -3 c5
8 11 7 22 -2 8 -6 22 -13 30 -14 8 -2 24 -11 34 -20 12 -11 23 -14 27 -9 9 13
42 18 42 7 0 -8 -7 -10 -51 -14 -18 -2 -18 -4 -5 -14 21 -15 20 -19 -3 -21
-14 -1 -18 4 -17 22 2 16 -1 22 -10 18 -8 -3 -14 0 -14 7 0 6 -4 8 -10 5 -5
-3 -10 -1 -10 5 0 7 -6 10 -14 7 -8 -3 -17 -1 -20 6 -2 7 -4 1 -3 -12 1 -14
-4 -26 -13 -28 -13 -4 -13 -3 0 6 8 5 11 13 7 18 -12 11 -27 -19 -17 -33 6 -6
7 -14 3 -17 -3 -4 -2 -7 3 -7 5 0 15 14 22 30 8 17 18 27 24 24 5 -3 2 -14 -8
-25 -9 -10 -13 -19 -8 -19 5 0 1 -5 -9 -11 -18 -10 -41 -4 -33 10 3 4 -4 12
-14 18 -15 10 -18 9 -16 -4 1 -8 10 -19 19 -25 16 -8 16 -11 -1 -36 -9 -14
-11 -23 -5 -19 8 5 11 3 8 -5 -3 -8 1 -22 10 -33 10 -13 13 -14 10 -4 -4 10 0
16 10 16 10 0 13 -6 9 -19 -5 -17 -2 -19 35 -22 8 -1 16 -7 19 -15 3 -8 0 -11
-6 -7 -6 3 -13 2 -17 -3 -3 -5 -17 1 -30 15 -14 14 -30 22 -35 19 -6 -4 -10
-3 -9 2 4 24 -2 35 -17 29 -14 -5 -15 -4 -5 8 8 9 8 16 2 20 -5 4 -8 18 -5 32
3 14 1 23 -5 20 -5 -3 -14 1 -21 9 -10 12 -16 13 -29 3 -9 -7 -13 -8 -9 -4 4
5 -2 18 -15 29 -22 19 -22 19 -1 13 13 -4 26 -1 34 9 7 8 17 15 23 15 6 0 2
-6 -8 -14 -18 -13 -18 -14 3 -25 27 -14 33 -14 30 2 -2 6 3 11 10 10 11 -3 16
9 13 30 0 4 4 7 10 7 5 0 7 6 3 13 -6 9 -4 9 8 -1 12 -9 18 -10 23 -2z m2820
-14 c-16 -12 -15 -13 12 -11 26 1 30 -2 27 -21 -1 -13 4 -28 12 -35 7 -6 11
-16 7 -22 -4 -6 0 -8 10 -4 17 7 33 -8 19 -17 -16 -10 -7 -61 10 -60 9 1 15
-5 14 -13 -1 -7 -6 -14 -12 -14 -5 0 -15 -6 -23 -12 -12 -9 -13 -9 -7 1 4 6 2
12 -3 12 -6 0 -11 5 -11 11 0 6 8 8 18 5 14 -5 14 -4 -2 9 -14 11 -16 15 -5
15 11 0 12 2 1 9 -8 4 -14 12 -14 16 0 4 6 12 14 17 9 6 6 7 -9 3 -18 -5 -21
-2 -19 19 2 14 0 23 -4 21 -5 -3 -10 2 -14 10 -3 8 -1 15 5 15 6 0 3 7 -6 17
-13 12 -19 13 -25 4 -5 -9 -9 -8 -14 5 -7 18 21 50 33 39 2 -3 -4 -11 -14 -19z
m-2182 0 c3 3 3 -4 0 -15 -5 -20 -6 -21 -20 -4 -13 17 -13 16 -4 -4 14 -27 14
-43 1 -23 -7 11 -10 11 -10 2 0 -7 -5 -10 -12 -6 -7 4 -8 3 -4 -5 4 -6 2 -20
-6 -29 -12 -15 -11 -16 5 -3 10 8 17 9 17 3 0 -6 -5 -14 -10 -17 -6 -4 -8 -10
-5 -15 3 -5 1 -11 -5 -15 -16 -10 -1 -25 18 -18 9 3 14 3 10 -2 -4 -4 -2 -15
5 -23 10 -13 9 -14 -10 -4 -26 14 -44 16 -23 2 13 -9 13 -10 0 -10 -8 0 -2 -7
14 -15 28 -15 51 -12 41 6 -3 5 1 6 10 3 12 -5 13 -9 4 -20 -6 -8 -8 -14 -3
-14 11 0 -18 -20 -29 -20 -5 0 -5 4 -2 10 3 6 -1 7 -10 4 -10 -4 -15 -2 -13 6
2 7 -3 14 -10 16 -7 1 -8 0 -2 -3 5 -2 8 -9 4 -14 -3 -5 2 -12 11 -15 12 -5
13 -9 5 -14 -9 -5 -9 -9 -1 -14 6 -4 11 -2 11 3 0 6 5 11 11 11 8 0 9 -4 0
-13 -6 -8 -8 -17 -4 -20 3 -4 2 -7 -4 -7 -10 0 -23 22 -22 36 0 4 -4 10 -11
14 -6 4 -13 22 -15 41 -2 19 -4 35 -5 37 -3 3 -3 41 0 45 1 1 4 11 6 22 2 11
5 29 8 40 2 11 5 24 5 28 1 5 6 5 12 2 6 -4 10 -1 8 6 -4 32 1 42 14 30 8 -6
16 -8 20 -5z m2144 -2 c-10 -11 26 -42 42 -37 9 4 13 3 9 -2 -4 -4 -2 -17 4
-29 6 -11 12 -35 14 -53 1 -25 -2 -31 -17 -30 -21 1 -25 13 -7 19 6 2 12 12
14 21 1 9 -2 15 -7 11 -5 -3 -7 -10 -4 -15 4 -5 1 -9 -4 -9 -6 0 -11 7 -11 15
0 8 5 15 10 15 6 0 10 5 10 11 0 5 -4 7 -10 4 -6 -4 -7 1 -4 12 5 15 4 16 -5
3 -8 -11 -11 -12 -11 -2 0 7 -4 11 -9 7 -5 -3 -13 0 -17 6 -4 8 -3 9 4 5 16
-10 15 3 -1 17 -16 15 -40 21 -32 7 3 -5 1 -10 -4 -10 -6 0 -11 6 -11 13 0 8
-4 7 -11 -3 -9 -13 -10 -13 -6 0 2 8 13 15 25 15 11 0 24 4 28 8 4 4 10 7 12
7 3 0 3 -3 -1 -6z m-2066 -18 c-14 -17 0 -29 23 -20 18 7 22 -11 4 -22 -6 -4
-8 -3 -5 3 4 6 -4 9 -18 7 -14 -1 -25 2 -25 8 0 6 -6 6 -15 -2 -8 -6 -19 -9
-24 -5 -6 3 -18 -10 -28 -29 -9 -20 -21 -36 -26 -36 -5 0 -4 6 2 14 6 7 9 22
5 32 -4 14 -3 15 4 6 7 -10 12 -6 22 18 11 26 15 29 22 16 8 -15 12 -14 35 4
30 23 40 26 24 6z m963 2 c-3 -4 0 -17 6 -28 11 -21 0 -57 -17 -53 -4 0 -6 -4
-5 -10 2 -7 0 -9 -4 -5 -4 5 -8 19 -10 33 -3 25 13 30 29 10 5 -6 7 -4 4 5 -2
8 -10 14 -17 12 -7 -2 -10 5 -6 20 3 13 3 17 0 10 -3 -6 -9 -10 -12 -8 -4 2
-8 -16 -9 -40 -1 -40 2 -46 23 -43 8 1 24 -22 24 -33 0 -12 -24 -4 -37 12 -11
13 -12 12 -7 -5 5 -16 4 -17 -5 -5 -8 11 -11 12 -11 2 0 -7 -5 -10 -11 -6 -8
5 -7 10 4 16 13 7 14 14 7 33 -5 14 -7 25 -4 25 4 0 2 6 -3 13 -13 17 -11 42
4 42 6 0 14 3 18 7 9 9 45 6 39 -4z m482 -1 c5 -4 1 -5 -8 -2 -9 4 -19 2 -22
-3 -3 -6 1 -12 9 -15 8 -4 12 -15 10 -26 -4 -22 23 -44 47 -39 7 2 12 -3 10
-10 -1 -7 3 -23 10 -35 18 -32 19 -64 2 -64 -17 0 -17 3 -4 27 8 14 6 21 -4
27 -8 4 -15 11 -15 16 -1 4 -3 6 -6 5 -2 -2 -12 7 -21 20 -13 19 -18 21 -32
10 -14 -11 -15 -10 -8 7 13 34 15 56 5 50 -5 -4 -7 -10 -4 -15 3 -5 -4 -8 -15
-7 -11 1 -20 6 -20 12 0 5 -5 2 -11 -8 -5 -9 -8 -21 -4 -26 3 -5 0 -13 -6 -17
-7 -4 -9 -3 -5 4 3 6 2 13 -4 17 -6 3 -13 -1 -17 -11 -5 -15 -8 -14 -15 7 -5
13 -12 19 -16 14 -11 -16 -35 -17 -29 -2 4 11 -2 14 -24 12 -19 -2 -28 2 -26
9 5 14 37 15 56 2 29 -22 54 -13 30 11 -7 7 -6 12 4 16 10 4 13 -3 12 -25 -2
-26 0 -29 10 -15 7 9 15 14 18 11 3 -3 12 7 20 23 15 29 54 39 73 20z m-1366
-7 c0 -5 -6 -10 -12 -10 -9 0 -8 -4 2 -10 8 -5 11 -10 7 -10 -4 0 -2 -10 4
-22 11 -20 11 -22 -3 -10 -11 9 -18 10 -23 2 -9 -14 -24 -13 -21 3 8 40 46 88
46 57z m1133 -16 c4 10 3 15 -3 11 -6 -3 -10 -1 -10 4 0 15 13 14 36 -5 10 -8
14 -13 8 -10 -15 7 -38 -20 -29 -34 3 -6 11 -8 16 -5 12 8 11 -2 -1 -26 -6
-10 -16 -19 -22 -19 -7 0 -7 4 0 13 7 8 7 18 2 27 -9 13 -10 13 -11 0 -1 -8
-1 -18 0 -22 0 -5 -3 -8 -7 -8 -4 0 -8 23 -8 50 0 44 2 48 11 29 11 -19 13
-19 18 -5z m771 14 c-3 -4 0 -8 5 -8 6 0 11 -4 11 -9 0 -5 -16 -8 -36 -6 -20
1 -38 -3 -40 -10 -8 -21 -32 -13 -30 10 1 23 34 30 48 10 4 -5 9 -3 13 6 3 9
12 16 20 16 8 0 12 -4 9 -9z m-2513 -12 c5 3 9 2 8 -3 -4 -25 1 -35 14 -24 8
6 17 8 20 4 7 -6 11 13 8 31 -1 5 4 4 12 -2 8 -7 17 -9 20 -5 4 3 7 2 8 -3 0
-5 2 -19 5 -32 3 -16 0 -21 -8 -16 -7 4 -8 3 -4 -4 4 -7 5 -12 2 -12 -2 0 -12
-3 -22 -7 -15 -6 -15 -2 4 24 18 25 19 31 6 29 -8 -1 -19 -8 -24 -15 -4 -8
-14 -10 -21 -7 -8 4 -6 1 4 -7 12 -10 14 -17 7 -22 -5 -3 -7 -11 -4 -17 4 -6
1 -9 -6 -6 -8 2 -14 14 -15 26 -2 25 -15 43 -15 21 0 -11 -2 -11 -10 1 -5 8
-10 20 -10 25 0 6 5 3 10 -5 6 -9 10 -10 10 -3 0 19 -20 26 -26 9 -3 -9 -10
-14 -15 -11 -11 8 -30 -30 -24 -48 4 -8 0 -14 -10 -14 -9 0 -14 6 -11 12 2 7
0 17 -6 23 -6 6 -6 12 3 17 8 5 10 4 5 -3 -4 -7 -3 -12 2 -12 13 0 24 29 15
42 -3 7 -1 8 5 4 7 -4 12 -2 12 4 0 6 4 9 9 5 5 -3 13 0 17 7 6 9 9 9 12 0 2
-7 8 -10 13 -6z m2410 1 c1 -7 1 -16 0 -20 -1 -4 3 -17 9 -27 6 -11 8 -20 6
-20 -3 0 -13 14 -22 31 -10 20 -11 28 -3 24 7 -5 10 -4 6 3 -8 11 -57 -7 -57
-21 0 -5 4 -6 9 -2 5 3 12 1 16 -5 4 -6 11 -8 16 -5 5 4 9 2 9 -4 0 -19 -19
-21 -29 -4 -10 17 -11 16 -17 -4 -3 -13 -10 -23 -15 -23 -11 0 -7 23 6 32 6 5
6 8 -1 8 -6 0 -10 10 -8 23 1 12 3 22 3 22 1 0 17 1 36 2 21 1 35 -3 36 -10z
m-2531 -12 c7 -8 9 -15 6 -15 -4 0 -1 -10 6 -22 7 -13 12 -30 13 -38 0 -8 6
-14 13 -12 6 1 12 -2 12 -7 0 -16 -15 -20 -30 -10 -8 5 -12 9 -7 9 4 0 1 12
-6 28 -8 15 -13 34 -12 42 2 9 -5 16 -15 16 -11 0 -17 -6 -15 -16 3 -17 -34
-74 -52 -77 -16 -3 -10 47 7 57 8 5 18 6 22 4 4 -3 9 0 9 5 3 21 4 26 12 39
11 16 22 15 37 -3z m929 8 c-3 -21 2 -33 13 -27 6 4 8 3 5 -3 -4 -6 6 -19 21
-29 21 -14 24 -14 14 -2 -9 11 -10 18 -2 23 5 3 10 0 10 -7 0 -17 36 -48 46
-40 4 4 3 1 -1 -7 -6 -11 -4 -13 8 -8 10 3 17 3 17 -1 0 -12 114 -10 123 2 6
7 7 4 3 -6 -3 -10 -1 -17 6 -15 6 1 12 -3 15 -10 6 -16 -27 -10 -37 7 -7 12
-10 11 -16 -3 -3 -9 -10 -14 -15 -11 -5 3 -6 11 -3 17 5 9 4 9 -6 0 -9 -8 -19
-9 -31 -2 -20 10 -41 9 -51 -5 -10 -14 -40 -16 -35 -3 3 7 10 11 17 9 11 -3
11 0 1 12 -7 9 -18 13 -24 9 -6 -3 -7 -1 -3 5 4 7 2 10 -7 6 -8 -3 -28 8 -45
25 -18 16 -32 24 -33 18 0 -8 -2 -8 -6 1 -2 6 -9 9 -15 6 -6 -4 -5 -10 3 -15
7 -4 10 -11 6 -15 -3 -4 -13 -1 -22 6 -17 14 -21 35 -5 25 5 -3 15 5 22 19 10
24 30 37 27 19z m297 -23 c-1 -16 -5 -33 -9 -36 -4 -4 -2 -13 4 -21 6 -7 8
-13 4 -13 -4 0 -2 -7 5 -15 6 -8 8 -20 4 -27 -6 -10 -3 -9 9 1 15 12 21 9 19
-11 -1 -3 5 -9 14 -12 9 -4 12 -2 8 5 -4 8 0 7 15 0 11 -7 21 -8 21 -4 0 4 5
2 11 -4 7 -7 25 -9 42 -6 24 5 28 3 22 -8 -5 -9 -1 -8 11 3 14 13 23 14 38 6
12 -7 17 -7 12 0 -8 13 19 23 41 15 12 -5 15 -2 10 10 -4 10 -1 18 6 18 7 1
22 3 35 4 12 1 22 -2 22 -7 0 -6 -8 -7 -17 -4 -15 5 -15 4 1 -9 15 -11 16 -15
5 -15 -8 0 -21 6 -28 13 -9 7 -11 7 -8 1 8 -15 -17 -25 -40 -18 -11 3 -10 0 4
-8 17 -10 20 -17 12 -33 -10 -19 -10 -19 5 -1 8 10 13 23 10 27 -7 12 3 11 28
-2 12 -6 18 -7 14 -1 -3 5 1 13 10 16 8 3 12 10 9 16 -3 5 -1 10 5 10 6 0 9 4
6 8 -3 5 1 9 9 9 8 0 15 -2 15 -5 0 -7 -43 -66 -53 -73 -5 -4 0 -10 12 -14 12
-3 19 -10 16 -15 -8 -13 21 -20 34 -7 6 6 11 7 11 1 0 -17 -22 -33 -39 -27
-13 4 -14 3 -1 -5 8 -7 19 -7 25 -2 6 5 17 5 24 1 9 -6 8 -9 -6 -13 -10 -3
-19 -15 -20 -26 -2 -24 12 -38 22 -22 3 5 11 10 16 10 6 0 7 -6 3 -12 -6 -10
-5 -10 8 -1 17 14 28 8 28 -16 0 -14 -2 -14 -10 -1 -8 13 -10 12 -10 -2 0 -22
3 -22 42 -2 16 9 28 11 24 6 -3 -5 7 -8 24 -7 17 1 30 -1 30 -6 0 -5 5 -9 11
-9 5 0 7 6 3 13 -5 9 -4 9 5 1 7 -6 13 -22 13 -35 1 -13 10 -34 21 -46 11 -13
17 -26 13 -30 -10 -11 -37 -12 -30 -2 3 5 0 9 -6 9 -6 0 -9 4 -5 9 3 5 1 12
-4 15 -5 4 -8 18 -6 32 2 18 -2 24 -11 20 -7 -3 -16 -1 -19 4 -6 10 -64 8 -82
-3 -6 -4 -19 -4 -29 0 -13 5 -16 3 -11 -10 4 -11 1 -17 -7 -17 -17 0 -25 -39
-15 -68 6 -15 3 -25 -9 -32 -15 -10 -15 -11 0 -6 9 2 22 -2 29 -10 10 -12 9
-13 -5 -8 -9 3 -16 2 -16 -3 0 -5 -6 -10 -12 -10 -7 0 -23 -3 -34 -7 -16 -5
-23 -2 -26 11 -5 21 22 51 44 47 11 -1 14 4 10 19 -5 20 -6 20 -13 1 -4 -10
-8 -14 -9 -9 0 6 -7 1 -15 -9 -8 -11 -18 -17 -21 -13 -4 4 -1 13 6 22 7 9 10
18 6 22 -3 3 -6 1 -6 -6 0 -7 -4 -10 -10 -6 -5 3 -7 12 -3 20 3 11 1 13 -10 9
-9 -3 -25 4 -36 15 -23 23 -36 28 -25 9 5 -7 3 -8 -5 -4 -7 5 -10 15 -7 25 5
14 4 14 -6 1 -16 -18 -48 -22 -48 -6 0 6 -5 4 -10 -4 -8 -13 -10 -13 -11 3 -1
9 -2 23 -3 30 0 6 -12 12 -26 12 -19 0 -25 -6 -26 -24 -1 -25 -22 -43 -41 -36
-7 2 -13 0 -13 -5 0 -5 -11 -12 -25 -16 -14 -3 -22 -10 -19 -15 3 -5 -3 -9
-13 -9 -13 0 -15 -2 -5 -9 13 -8 13 -46 -1 -68 -4 -6 -1 -14 5 -16 7 -3 1 -5
-14 -4 -32 2 -35 12 -10 40 9 11 11 17 5 13 -7 -4 -13 -2 -13 3 0 6 8 11 18
12 10 0 12 3 5 6 -7 2 -13 10 -13 16 -1 16 -31 52 -56 65 -24 12 -114 23 -114
13 0 -11 -39 -11 -46 1 -4 7 -2 8 5 4 6 -4 14 0 17 8 3 9 11 13 18 9 6 -4 4 1
-4 11 -13 17 -11 21 17 47 l32 28 -30 -4 c-20 -2 -29 0 -26 8 2 7 11 11 21 9
9 -2 16 2 16 8 0 5 -5 9 -11 8 -6 -2 -14 3 -16 10 -4 11 -1 12 16 3 12 -7 26
-9 31 -6 6 3 10 2 10 -4 0 -5 -6 -12 -12 -14 -10 -4 -10 -6 -1 -6 19 -1 26 19
12 35 -10 12 -9 18 5 32 17 16 18 16 11 -5 -4 -15 -2 -23 5 -23 6 0 8 5 5 10
-3 6 -1 10 4 10 6 0 11 -5 11 -12 0 -6 3 -8 6 -5 4 4 2 13 -5 20 -9 11 -8 17
5 28 14 11 15 10 12 -7 -2 -15 2 -18 20 -17 15 2 21 -1 16 -9 -4 -7 -3 -8 5
-4 17 11 2 28 -20 21 -14 -5 -17 -3 -13 9 3 9 10 13 15 10 5 -3 6 2 2 11 -3 9
-9 13 -12 8 -3 -4 -15 -10 -25 -11 -18 -3 -19 -2 -5 15 13 17 13 17 -5 3 -18
-13 -19 -13 -12 0 4 9 1 8 -7 -2 -19 -24 -24 -23 -24 7 0 14 3 25 8 25 5 0 9
-4 9 -9 0 -5 8 -8 18 -6 9 1 22 -2 29 -7 7 -5 14 -5 18 2 3 6 12 7 18 3 20
-13 41 -12 49 0 11 17 10 29 -2 22 -13 -8 -30 36 -20 50 4 6 6 25 4 43 -2 21
2 32 11 32 9 0 13 -10 11 -30z m1471 9 c-9 -14 -14 -16 -26 -6 -12 10 -13 9
-6 -2 5 -10 4 -12 -3 -7 -7 4 -12 2 -12 -4 0 -7 -7 -10 -17 -6 -16 6 -16 5 0
-8 11 -8 14 -17 8 -20 -5 -4 -17 4 -25 16 -11 15 -16 18 -16 8 0 -12 -2 -12
-9 -2 -6 11 -10 10 -16 -5 -5 -10 -7 -25 -6 -33 2 -13 1 -13 -8 0 -6 8 -11 10
-11 5 0 -6 -9 -11 -20 -12 -11 -1 -18 1 -16 5 3 4 -4 8 -14 8 -10 0 -16 -4
-14 -8 3 -5 0 -7 -7 -6 -8 2 -13 -8 -13 -27 0 -16 -5 -33 -10 -37 -6 -4 -5
-13 3 -22 14 -17 5 -21 -16 -8 -8 5 -9 13 -3 22 6 8 10 27 10 43 0 29 35 73
46 56 4 -7 10 -6 19 1 9 8 15 8 20 0 10 -16 25 -2 18 17 -4 10 -2 14 5 9 6 -3
15 2 21 11 8 14 10 15 11 3 0 -13 1 -13 10 0 8 12 10 12 10 1 0 -10 3 -11 13
-2 8 6 17 8 20 4 4 -3 9 0 12 8 3 8 16 15 30 15 21 2 22 -1 12 -17z m-1819
-48 c20 -24 23 -24 35 -10 12 15 15 15 37 -3 14 -12 24 -25 22 -30 -1 -4 9 -6
24 -4 21 4 24 3 14 -9 -7 -8 -17 -12 -24 -8 -8 4 -8 3 0 -6 15 -17 46 -21 62
-8 6 5 13 6 13 1 1 -5 2 -16 3 -24 0 -9 10 -14 24 -13 12 2 22 -2 22 -8 0 -5
-4 -8 -9 -5 -11 7 -44 -30 -37 -42 3 -6 -2 -8 -12 -5 -10 2 -23 13 -30 23 -10
16 -8 18 9 17 12 -1 18 -6 14 -16 -5 -11 -3 -12 10 -1 11 9 13 15 5 20 -7 4
-11 10 -11 14 3 21 0 30 -7 21 -10 -14 -32 -17 -32 -4 0 6 -7 8 -16 5 -10 -4
-13 -2 -8 6 4 6 3 9 -2 6 -5 -3 -14 0 -21 7 -7 8 -8 15 -3 17 5 2 0 14 -11 28
-12 14 -19 18 -16 9 3 -9 -1 -16 -9 -16 -7 0 -11 5 -7 10 3 5 -5 4 -17 -3 -18
-10 -21 -9 -15 1 6 8 4 10 -5 4 -9 -5 -11 -4 -6 3 5 8 2 10 -9 6 -10 -4 -14
-1 -12 7 2 8 2 11 0 7 -3 -5 -9 -8 -15 -8 -6 0 -4 7 3 17 11 13 11 17 1 20 -6
3 -9 10 -6 15 4 7 2 8 -5 4 -6 -4 -8 -12 -5 -18 4 -6 -2 -8 -17 -3 -17 4 -20
3 -10 -3 9 -7 10 -12 2 -16 -6 -4 -14 0 -17 8 -5 13 -9 12 -25 -7 -10 -12 -18
-17 -19 -10 0 16 41 54 51 47 5 -3 17 0 26 5 14 8 20 6 28 -6 6 -9 20 -28 33
-42z m-284 33 c4 -10 2 -13 -7 -8 -6 4 -4 -2 6 -13 23 -26 22 -41 -2 -19 -17
16 -18 15 -17 -6 1 -13 0 -28 -3 -33 -3 -6 2 -3 11 7 11 12 19 15 23 8 4 -6
-1 -18 -11 -26 -15 -11 -15 -13 -3 -8 11 3 18 -2 22 -16 4 -14 10 -19 18 -15
7 5 10 3 7 -5 -2 -7 -15 -15 -29 -17 -17 -2 -20 0 -10 6 10 6 11 13 2 27 -6
11 -11 15 -11 11 0 -4 -9 -3 -20 3 -11 6 -19 16 -17 23 1 7 -6 11 -16 11 -15
-2 -14 2 7 20 13 13 27 33 31 44 8 26 11 27 19 6z m76 1 c6 -4 8 -10 5 -15 -9
-15 15 -22 30 -10 16 13 24 2 23 -30 0 -8 3 -22 6 -31 5 -10 2 -16 -8 -16 -11
0 -14 10 -12 38 2 21 -1 36 -6 33 -4 -3 -5 -10 -2 -16 5 -8 1 -9 -10 -5 -10 4
-15 3 -11 -3 3 -6 1 -10 -4 -10 -10 0 -15 14 -12 33 0 4 -4 7 -10 7 -5 0 -7 6
-3 13 4 6 4 9 -1 5 -4 -4 -13 -4 -19 2 -8 6 -12 3 -12 -10 0 -10 4 -16 9 -13
5 3 13 -1 18 -8 12 -20 11 -26 -6 -26 -9 0 -14 6 -11 14 3 8 2 12 -3 9 -16
-10 -30 19 -22 49 1 6 47 -1 61 -10z m2070 -35 c-12 -23 -13 -33 -2 -26 5 3 8
-8 7 -24 -1 -18 6 -36 17 -46 10 -10 18 -22 18 -28 0 -6 -5 -4 -11 4 -8 11
-12 12 -16 3 -10 -27 -20 -11 -19 30 1 29 -3 41 -11 40 -7 -2 -13 0 -13 5 0 4
-10 18 -21 32 -11 14 -17 19 -13 11 5 -10 3 -12 -5 -6 -10 6 -11 3 -2 -13 9
-16 8 -20 -4 -18 -23 3 -29 14 -17 29 7 8 8 18 4 22 -4 5 -1 5 6 1 6 -4 12 -2
12 4 0 6 5 8 10 5 6 -3 13 1 16 9 5 14 8 14 30 0 19 -13 22 -20 14 -34z
m-2644 21 c-2 -3 2 -11 9 -18 11 -10 15 -10 19 0 3 7 5 6 4 -3 -1 -8 2 -23 6
-32 7 -16 12 -15 51 12 24 16 45 35 48 42 4 10 7 10 18 0 8 -7 10 -13 4 -12
-22 5 -29 -1 -15 -10 10 -7 11 -10 2 -10 -9 0 -7 -8 5 -27 12 -18 13 -24 4
-19 -9 6 -12 5 -9 -5 3 -8 11 -13 17 -11 8 1 9 -2 5 -10 -12 -19 -12 -48 0
-48 6 0 4 -5 -4 -10 -8 -5 -10 -10 -3 -10 6 0 10 -11 9 -25 -2 -14 3 -36 10
-50 7 -14 9 -25 3 -25 -5 0 -9 6 -10 13 0 9 -2 9 -6 -1 -2 -6 -9 -10 -14 -7
-5 4 -6 0 -4 -7 4 -9 -2 -14 -14 -15 -18 -2 -19 1 -8 18 6 10 17 19 23 19 7 0
11 11 10 24 -1 19 -4 22 -17 15 -16 -8 -29 -3 -29 13 0 4 3 7 8 7 36 -6 40 25
7 61 -18 20 -8 29 11 10 7 -7 11 -6 11 4 0 8 -5 12 -10 9 -6 -4 -7 -1 -2 7 6
9 4 11 -5 5 -9 -6 -11 -4 -5 5 6 9 4 11 -5 5 -8 -5 -11 -3 -8 6 3 8 11 13 17
11 7 -1 10 2 6 8 -3 6 -11 8 -16 5 -5 -4 -9 -1 -9 4 0 6 -5 11 -11 11 -8 0 -8
-4 0 -13 11 -14 -3 -37 -23 -37 -6 0 -5 5 2 12 7 7 12 17 12 23 0 5 -5 2 -11
-8 -6 -9 -14 -15 -20 -12 -5 4 -9 2 -9 -3 0 -5 -6 -9 -12 -9 -7 0 -19 -2 -27
-4 -7 -2 -16 2 -19 10 -2 8 0 11 5 8 5 -3 15 -1 23 4 13 8 13 10 0 18 -8 5
-18 7 -24 4 -5 -4 -7 1 -3 11 4 9 3 15 -2 11 -5 -3 -11 -2 -14 2 -5 10 1 -12
8 -30 3 -7 -1 -21 -10 -32 -15 -20 -15 -20 -9 0 5 16 4 17 -4 5 -6 -8 -8 -18
-5 -23 3 -5 -4 -4 -15 2 -18 10 -20 8 -17 -9 2 -11 -1 -20 -6 -20 -6 0 -8 -4
-4 -9 3 -6 -3 -14 -12 -20 -10 -6 -14 -11 -10 -11 5 0 22 9 37 20 16 11 31 16
34 12 3 -5 -6 -14 -20 -21 -14 -6 -22 -16 -19 -21 8 -12 -5 -13 -24 -1 -8 5
-21 7 -28 4 -11 -4 -7 -10 12 -23 15 -10 27 -21 28 -26 1 -5 10 -8 20 -6 10 1
26 -4 35 -10 20 -15 30 -54 11 -42 -8 4 -10 3 -5 -5 4 -6 11 -9 16 -6 4 3 11
-2 14 -11 5 -12 1 -14 -17 -9 -17 5 -19 4 -7 -4 8 -6 23 -8 33 -5 9 3 17 0 17
-6 0 -6 5 -8 10 -5 6 3 10 1 10 -5 0 -7 7 -10 15 -6 8 3 19 -2 24 -12 5 -9 13
-17 18 -17 4 0 8 -5 7 -11 -1 -6 4 -11 11 -11 7 0 11 6 9 12 -3 6 2 12 10 12
13 0 14 -15 7 -56 -1 -2 -7 2 -14 8 -8 6 -17 8 -20 4 -7 -6 -11 11 -8 34 2 14
-22 11 -42 -5 -12 -10 -14 -9 -13 10 1 14 -5 23 -14 23 -8 1 -26 7 -40 15 -14
7 -27 14 -30 14 -3 1 -5 12 -4 26 1 30 -15 43 -33 28 -10 -8 -12 -7 -8 4 8 20
-21 31 -45 18 -16 -9 -18 -7 -16 18 2 15 1 32 -3 37 -3 6 -6 14 -6 20 0 5 -10
15 -23 21 -18 9 -20 13 -8 17 8 3 17 -1 20 -10 5 -12 9 -13 21 -3 13 11 14 10
9 -6 -4 -14 -1 -13 14 6 19 23 19 26 4 35 -9 5 -24 9 -31 10 -10 0 -15 11 -15
30 -1 19 4 29 12 27 7 -1 12 5 10 14 -2 9 2 19 8 21 13 4 32 -35 29 -59 -4
-25 34 -18 52 9 8 12 12 26 9 32 -9 14 3 38 19 38 8 0 13 -3 11 -6z m1835 -16
c11 7 11 3 3 -19 -3 -9 -10 -13 -15 -10 -5 3 -6 10 -3 16 4 6 -2 5 -15 -2
l-22 -11 22 -18 23 -18 -25 -13 c-21 -12 -23 -12 -11 2 15 19 6 26 -28 23 -26
-3 -60 11 -71 27 -3 5 -9 3 -12 -6 -4 -9 -3 -15 1 -15 20 3 33 -2 27 -11 -4
-7 -13 -6 -27 1 -16 9 -19 8 -12 -3 6 -10 4 -11 -7 -3 -8 6 -6 2 5 -8 33 -31
30 -59 -4 -37 -13 8 -13 10 -1 10 11 0 9 4 -4 14 -14 10 -25 11 -37 5 -14 -7
-16 -6 -12 6 3 8 10 13 14 10 4 -3 11 2 14 11 3 8 10 13 15 9 10 -6 37 34 33
48 -1 5 2 6 8 2 6 -3 8 -10 5 -15 -8 -12 15 -24 49 -26 21 -1 32 5 44 27 13
22 18 25 25 13 5 -8 12 -12 18 -9z m125 4 c2 -29 4 -31 19 -19 14 11 19 7 16
-12 -1 -8 15 -12 32 -9 5 1 6 -3 2 -9 -3 -5 1 -13 9 -16 12 -5 13 -10 5 -25
-7 -13 -7 -25 0 -37 6 -9 11 -12 11 -7 0 6 9 11 20 12 16 1 18 -2 10 -16 -5
-10 -7 -21 -3 -24 3 -4 -2 -9 -11 -13 -9 -3 -13 -10 -10 -15 3 -5 -2 -6 -10
-3 -20 8 -16 26 9 42 l20 12 -20 -2 c-11 -2 -23 -7 -26 -12 -11 -15 -39 2 -33
19 3 8 10 12 15 9 5 -3 6 -11 3 -17 -4 -8 -2 -7 7 1 12 11 12 14 -1 22 -12 8
-13 12 -2 19 11 7 11 9 -2 14 -9 4 -16 12 -16 18 0 8 6 7 18 -2 15 -13 16 -12
3 4 -8 9 -16 15 -19 12 -3 -2 -11 3 -19 13 -13 15 -13 15 -4 -5 14 -28 14 -30
-4 -30 -9 0 -14 5 -12 12 7 16 -20 48 -33 40 -8 -5 -8 -11 1 -21 7 -8 7 -14 1
-14 -5 0 -15 7 -22 15 -10 12 -9 16 5 21 10 4 15 14 12 24 -3 12 1 17 12 15 9
-1 16 -8 17 -16z m-1225 -3 c-9 -11 -5 -18 21 -33 18 -10 48 -18 66 -18 20 1
31 -3 29 -10 -6 -15 29 -56 45 -53 7 2 13 -4 13 -12 0 -8 3 -19 7 -25 9 -15 3
-56 -9 -63 -8 -5 -7 -13 3 -26 9 -13 14 -15 14 -6 0 7 3 10 6 7 9 -9 -16 -38
-27 -31 -5 3 -9 1 -9 -5 0 -5 -7 -8 -15 -7 -19 3 -32 16 -17 17 7 1 17 3 22 4
6 1 13 3 17 4 3 0 -2 10 -12 21 -14 15 -15 20 -4 20 11 0 11 2 -1 11 -12 8 -9
9 10 4 17 -4 21 -3 11 3 -9 7 -10 12 -2 16 14 9 14 26 1 26 -5 0 -9 -5 -7 -11
1 -6 -4 -14 -11 -16 -10 -4 -9 3 3 27 9 18 12 30 7 26 -5 -3 -15 1 -22 9 -10
12 -16 13 -26 4 -10 -8 -14 -8 -14 -1 0 6 5 14 10 17 16 10 1 25 -18 18 -15
-6 -16 -5 -2 13 11 15 11 16 0 7 -16 -15 -34 -17 -26 -5 3 5 -1 9 -9 9 -8 0
-15 -3 -15 -7 0 -3 -13 -6 -30 -6 -16 0 -30 3 -30 8 0 4 -6 7 -12 6 -8 -2 -12
6 -11 20 2 12 -1 22 -5 22 -11 0 -38 -20 -27 -20 6 0 16 -10 24 -21 11 -19 11
-21 -3 -16 -9 4 -20 -1 -26 -11 -10 -15 -10 -15 -6 3 3 11 2 26 -3 34 -6 10
-3 20 12 32 21 16 23 16 41 1 11 -9 16 -12 13 -5 -4 6 0 16 10 22 24 14 27 13
14 -3z m822 -33 c2 -16 7 -35 10 -40 3 -5 0 -10 -8 -11 -8 -1 -22 -3 -30 -4
-8 -1 -12 -4 -10 -8 3 -4 16 -6 29 -5 19 2 24 -1 23 -16 -2 -25 -29 -34 -43
-14 -7 9 -15 12 -18 7 -3 -6 1 -13 10 -16 13 -5 14 -9 4 -22 -10 -11 -15 -12
-21 -2 -4 6 -5 16 -2 22 4 5 -1 7 -11 3 -14 -6 -15 -3 -6 14 6 11 16 17 21 13
6 -3 9 0 8 7 -2 8 2 24 9 36 15 26 12 43 -8 61 -8 8 -10 11 -3 8 6 -4 15 -1
18 5 11 16 24 -2 28 -38z m314 -5 c3 -22 1 -30 -5 -23 -11 10 -15 30 -13 54 2
23 12 5 18 -31z m664 10 c11 -15 25 -26 30 -23 5 4 9 1 9 -5 0 -6 5 -8 11 -5
6 4 8 14 5 24 -4 11 -2 10 10 -4 8 -11 19 -19 24 -18 5 2 8 -6 7 -17 -1 -11
-5 -20 -10 -20 -5 0 -4 -6 2 -13 6 -8 8 -16 5 -20 -3 -3 4 -10 15 -17 12 -6
19 -15 16 -21 -4 -5 -1 -9 4 -9 6 0 2 -9 -9 -20 -20 -20 -28 -46 -11 -35 5 3
13 0 17 -7 4 -7 4 -10 -1 -6 -4 4 -14 3 -20 -2 -9 -8 -14 -6 -18 4 -4 9 -2 18
3 21 5 3 7 15 5 26 -3 14 0 19 9 16 7 -3 13 1 13 7 0 9 -11 12 -31 9 -28 -3
-29 -2 -10 12 12 9 14 14 5 15 -8 0 -11 6 -7 18 6 15 5 15 -8 -1 -9 -12 -16
-14 -21 -7 -3 5 -11 7 -17 4 -6 -4 -9 -1 -6 6 2 8 14 14 26 15 30 2 36 10 22
32 -11 16 -11 16 -6 0 4 -14 2 -16 -12 -8 -12 6 -23 5 -37 -5 -13 -10 -15 -14
-4 -14 12 0 12 -2 -1 -10 -8 -5 -18 -10 -22 -10 -13 0 -1 30 17 44 17 12 17
13 -10 12 -15 0 -30 4 -32 11 -3 8 3 11 16 8 15 -3 18 0 14 13 -4 10 -8 12
-11 4 -2 -7 -8 -10 -13 -6 -5 3 -14 -7 -21 -21 -8 -18 -14 -22 -20 -13 -4 7
-8 18 -8 23 0 6 5 3 10 -5 9 -13 10 -13 11 0 1 8 3 20 4 25 2 6 3 13 4 16 3
16 34 2 52 -23z m-635 3 c-3 -5 1 -14 9 -21 11 -9 12 -16 3 -30 -7 -10 -17
-16 -23 -12 -16 10 -35 11 -35 1 0 -5 -5 -9 -11 -9 -5 0 -7 5 -4 10 3 6 2 10
-4 10 -5 0 -12 -6 -14 -12 -4 -10 -6 -10 -6 -1 -1 6 4 15 10 18 7 5 4 14 -8
28 -16 19 -16 20 0 8 9 -7 17 -10 17 -5 0 4 6 -1 14 -11 7 -10 21 -20 30 -21
18 -3 20 4 7 26 -11 15 -5 30 10 30 6 0 8 -4 5 -9z m-1351 -13 c5 4 5 -1 2
-11 -4 -10 -3 -16 2 -12 5 3 8 -11 7 -30 -2 -20 -1 -33 2 -30 7 7 32 -15 32
-27 0 -6 -6 -5 -15 2 -8 6 -19 9 -25 5 -5 -3 -20 -8 -32 -10 -22 -5 -32 -16
-28 -31 1 -4 -4 -10 -11 -15 -10 -6 -9 -10 6 -14 50 -17 65 -28 54 -42 -16
-18 -23 -17 -59 13 -24 21 -28 29 -19 40 6 8 8 14 4 14 -4 0 -2 6 4 13 6 8 7
18 3 22 -4 5 -1 5 6 1 6 -4 12 -2 12 4 0 6 5 8 10 5 6 -3 10 -1 10 5 0 6 4 9
9 6 14 -9 32 20 25 39 -5 13 -9 14 -16 3 -6 -9 -7 -5 -3 11 4 13 3 21 -2 18
-5 -3 -9 3 -9 13 0 13 4 16 12 10 6 -6 15 -6 19 -2z m1410 -26 c0 -11 8 -17
23 -17 12 0 22 -4 22 -10 0 -21 -12 -45 -22 -45 -6 0 -5 7 3 18 7 9 9 14 5 10
-5 -4 -15 0 -23 10 -8 9 -11 11 -7 3 4 -9 3 -12 -4 -7 -6 3 -13 2 -17 -4 -4
-6 -11 -8 -16 -5 -5 4 -12 -1 -15 -10 -5 -13 -9 -14 -15 -4 -4 7 -15 14 -23
15 -9 1 -14 -2 -11 -7 4 -5 2 -17 -4 -26 -8 -15 -9 -13 -7 11 4 36 31 54 45
29 9 -17 10 -17 17 2 4 11 16 26 26 33 16 11 17 17 6 30 -10 15 -10 15 2 4 8
-7 15 -20 15 -30z m140 28 c-3 -5 -2 -10 4 -10 6 0 9 -6 7 -12 -13 -42 -17
-49 -26 -43 -8 5 -7 11 0 20 7 8 9 19 5 25 -6 10 1 30 11 30 3 0 2 -4 -1 -10z
m610 -20 c-3 -41 -8 -44 -29 -21 -16 18 -16 19 1 17 9 0 18 5 19 12 4 36 12
29 9 -8z m-2100 -1 c0 -8 4 -15 9 -16 5 0 13 -8 18 -17 5 -8 15 -13 23 -10 8
4 12 11 8 17 -3 6 -1 7 5 3 6 -4 9 -13 6 -21 -4 -8 -10 -13 -14 -10 -5 3 -10
1 -12 -5 -2 -8 -88 63 -88 73 0 2 10 3 22 2 13 -1 23 -8 23 -16z m1813 12 c2
0 0 -7 -5 -13 -4 -7 -8 -16 -8 -20 0 -5 -3 -8 -7 -8 -5 0 -13 0 -19 0 -6 0 -3
7 5 16 19 19 21 31 3 15 -10 -8 -14 -7 -14 3 0 10 27 15 45 7z m57 -27 c9 11
15 13 20 6 3 -5 12 -8 18 -4 7 3 3 -2 -7 -10 -11 -9 -15 -16 -8 -16 6 0 9 -9
7 -20 -4 -22 5 -26 22 -9 8 8 14 6 22 -10 9 -17 8 -22 -8 -31 -25 -13 -34 -13
-26 0 3 5 -5 15 -19 21 -14 7 -23 16 -20 21 3 4 10 5 16 2 6 -4 5 2 -2 15
l-11 22 -19 -23 c-17 -21 -19 -21 -25 -5 -6 14 -10 15 -21 6 -8 -6 -12 -15 -9
-19 3 -4 -9 -13 -26 -20 -18 -8 -28 -18 -25 -26 3 -9 -1 -11 -12 -8 -9 3 -6
-2 8 -10 24 -14 24 -17 1 -20 -5 0 -13 -5 -18 -10 -5 -5 -3 -6 5 -2 6 4 12 2
12 -3 0 -6 -6 -11 -12 -11 -7 0 -5 -5 5 -11 9 -5 17 -15 17 -21 0 -6 -7 -5
-17 3 -15 11 -16 11 -5 -1 18 -21 15 -35 -5 -19 -11 10 -14 10 -9 2 4 -7 2
-13 -3 -13 -14 0 -14 27 -1 35 7 4 7 12 0 25 -7 14 -6 19 6 24 13 5 14 9 5 20
-9 10 -9 16 -1 21 8 5 8 11 0 20 -10 12 -7 13 11 10 29 -6 43 3 29 20 -12 14
3 31 18 21 4 -2 14 -1 22 4 9 5 19 5 27 -2 7 -6 13 -8 13 -4 0 3 0 9 0 14 0 4
-4 8 -10 8 -5 1 -15 2 -20 3 -6 1 -5 9 2 21 12 19 13 19 27 -7 12 -25 15 -25
26 -9z m-881 -7 c-5 -16 -3 -19 12 -13 38 15 38 15 43 -25 0 -5 5 -8 10 -4 5
3 12 1 15 -4 12 -18 -15 -23 -28 -5 -10 12 -15 14 -20 5 -6 -9 -12 -7 -22 6
-13 16 -14 16 -8 1 4 -12 1 -18 -7 -18 -10 -1 -9 -5 4 -14 9 -7 17 -17 17 -21
0 -4 -7 -2 -15 5 -12 10 -15 10 -15 0 0 -10 -3 -10 -15 0 -11 9 -15 9 -15 1 0
-7 -5 -9 -11 -5 -8 4 -3 11 12 20 13 7 24 16 24 21 0 4 4 14 8 21 5 6 4 12 0
12 -5 0 -9 8 -10 18 -1 10 5 19 13 19 10 0 12 -7 8 -20z m180 -2 c-12 -19 -12
-22 1 -22 8 0 15 5 15 10 0 5 7 4 15 -3 8 -7 15 -9 15 -4 0 5 5 2 10 -6 5 -8
7 -22 4 -32 -2 -9 -1 -19 4 -21 9 -6 34 7 33 17 -3 23 1 28 10 13 5 -9 7 -22
3 -29 -4 -6 -3 -8 3 -5 13 8 26 -20 16 -35 -3 -6 -1 -8 4 -5 6 4 13 0 17 -8 7
-20 -1 -19 -31 5 -14 11 -30 17 -36 13 -6 -4 -8 0 -4 11 4 11 3 15 -4 10 -6
-4 -15 0 -20 7 -6 9 -9 10 -9 2 0 -6 5 -15 10 -18 6 -4 8 -11 4 -16 -3 -5 -10
-7 -15 -4 -5 4 -9 1 -9 -4 0 -6 -3 -10 -7 -9 -17 3 -42 -15 -36 -26 3 -6 2 -8
-2 -3 -5 4 -16 -3 -24 -15 -19 -27 -79 -32 -98 -8 -15 19 -16 30 -3 30 6 0 9
-5 8 -12 -2 -7 6 -12 17 -12 11 0 23 -5 27 -11 5 -6 8 -6 8 2 0 7 7 10 18 7
13 -5 14 -4 3 4 -11 8 -9 11 8 17 14 4 20 12 17 21 -3 9 -1 12 4 9 6 -3 10 0
11 7 0 10 2 10 6 0 2 -6 9 -9 15 -6 6 4 5 10 -3 16 -10 6 -7 7 9 3 22 -6 31 8
12 20 -6 4 -1 15 12 26 13 12 18 18 12 15 -7 -3 -14 1 -17 9 -4 8 -15 12 -28
10 -29 -6 -62 13 -55 31 8 21 -2 17 -14 -6 -8 -15 -8 -20 1 -18 6 2 13 -2 15
-7 2 -6 -4 -11 -15 -12 -13 -1 -18 4 -16 15 1 9 -3 23 -9 31 -8 11 -8 13 1 8
6 -4 14 -4 17 1 3 5 23 8 44 8 38 0 39 -1 26 -21z m-1183 -6 c9 -17 8 -20 -2
-14 -8 6 -10 4 -5 -4 5 -7 14 -10 21 -7 7 2 18 -1 24 -7 20 -20 39 -15 51 12
10 24 16 27 60 27 28 0 50 -3 50 -7 0 -4 11 -6 25 -4 24 2 24 1 10 -15 -8 -9
-15 -19 -15 -22 0 -8 21 -5 36 5 7 4 17 1 23 -7 13 -15 5 -46 -12 -46 -7 0 -7
4 1 12 7 7 12 17 12 23 0 5 -6 1 -12 -9 -10 -18 -12 -18 -24 -2 -6 10 -16 17
-21 17 -4 0 -7 10 -5 22 1 12 -1 18 -5 12 -12 -16 -36 -18 -30 -2 3 8 -1 14
-9 14 -8 0 -14 -4 -14 -9 0 -5 -4 -6 -10 -3 -5 3 -10 1 -10 -6 0 -7 -7 -4 -15
7 -15 18 -15 18 -8 0 4 -13 3 -17 -5 -12 -6 4 -16 -3 -22 -16 -9 -19 -9 -21 2
-8 14 17 38 24 38 13 0 -11 -20 -40 -20 -29 0 5 -6 3 -14 -3 -11 -9 -15 -8
-20 6 -4 10 -10 13 -14 8 -11 -16 -35 -17 -29 -2 3 7 -1 14 -8 14 -10 0 -11
-6 -2 -24 6 -13 13 -20 16 -16 3 4 13 9 21 11 9 1 5 -5 -9 -16 -17 -14 -19
-19 -7 -19 9 0 16 3 16 7 0 3 9 6 20 7 11 1 18 -2 16 -6 -3 -4 1 -8 9 -8 8 0
15 5 15 10 0 5 6 4 13 -2 8 -6 17 -8 20 -4 4 3 7 0 7 -9 0 -15 -28 -20 -45 -8
-5 4 -29 6 -52 5 -42 -2 -47 2 -44 35 1 12 0 12 -8 -1 -6 -9 -8 -27 -6 -39 3
-14 -2 -28 -13 -36 -14 -11 -14 -13 -2 -14 13 0 13 -1 0 -10 -9 -6 -10 -10 -3
-10 6 0 11 -8 10 -18 0 -10 -7 -19 -15 -19 -8 0 -12 7 -9 19 3 10 1 18 -4 18
-5 0 -9 -4 -9 -10 0 -5 -7 -7 -16 -3 -13 5 -12 9 6 28 l22 23 -21 12 c-12 6
-19 16 -15 22 4 6 -2 8 -17 3 -19 -5 -21 -4 -9 4 11 8 11 11 2 11 -10 0 -10 3
0 14 7 8 15 12 17 11 1 -2 13 0 26 5 14 5 26 5 33 -2 21 -21 22 12 1 41 -12
16 -18 34 -15 40 10 15 14 14 27 -10z m-568 -6 c10 -2 16 0 13 5 -2 4 13 8 35
8 28 1 38 -3 35 -12 -3 -7 4 -20 14 -29 18 -17 21 -38 5 -52 -4 -4 -5 -2 -1 5
4 6 2 12 -3 12 -6 0 -10 3 -10 8 1 4 1 14 0 22 -1 11 -4 11 -13 2 -16 -16 -25
-15 -25 3 0 9 6 14 12 11 6 -2 12 2 12 9 0 10 -5 11 -18 4 -23 -12 -38 -12
-19 1 9 6 10 10 3 10 -18 0 -26 -19 -10 -26 13 -5 20 -34 8 -34 -10 0 -37 20
-27 20 5 0 3 7 -5 16 -11 14 -13 14 -21 -1 -5 -8 -13 -13 -17 -11 -4 3 -8 -1
-8 -9 0 -11 4 -12 14 -4 9 8 13 8 13 1 0 -6 -10 -18 -22 -26 -15 -11 -18 -16
-8 -16 11 0 12 -3 3 -8 -8 -5 -6 -14 7 -32 11 -14 20 -19 20 -12 0 6 5 12 11
12 6 0 9 -7 6 -15 -4 -8 -2 -17 4 -21 5 -3 7 -15 4 -27 -4 -15 -3 -18 3 -9 13
20 19 19 37 -3 l15 -20 -6 20 c-5 17 -4 18 6 5 9 -12 10 -11 5 8 -4 13 -2 22
4 22 6 0 11 5 11 11 0 5 -4 7 -10 4 -5 -3 -7 0 -4 8 6 17 -23 50 -37 42 -5 -4
-9 -1 -9 4 0 6 2 11 4 11 2 0 12 3 22 7 11 4 15 3 10 -5 -6 -10 26 -36 46 -37
11 0 22 -15 11 -15 -6 0 -18 -11 -26 -24 -14 -21 -14 -26 -1 -42 10 -14 14
-15 12 -4 -2 8 3 14 10 12 7 -1 15 4 18 12 3 8 12 12 20 9 8 -3 11 -9 8 -14
-3 -5 -10 -6 -16 -3 -7 5 -8 2 -4 -5 5 -7 15 -10 23 -6 14 5 14 3 2 -12 -12
-15 -12 -16 4 -10 13 5 16 3 10 -6 -9 -13 -10 -19 -12 -45 -2 -33 -26 -20 -26
14 0 18 3 30 7 28 4 -3 5 3 1 12 -4 12 -8 14 -11 5 -3 -8 -8 -7 -18 6 -12 15
-13 15 -8 2 7 -22 -14 -35 -22 -15 -6 16 -24 12 -24 -5 0 -6 4 -8 9 -4 5 3 12
1 16 -4 3 -5 14 -8 25 -6 12 2 17 -1 14 -10 -7 -16 -33 -13 -45 6 -5 8 -9 10
-9 5 0 -5 -7 -3 -15 4 -8 7 -15 9 -15 4 0 -5 -6 -2 -13 7 -12 16 -18 19 -36
19 -10 0 -27 39 -23 52 1 4 -7 12 -18 18 -11 6 -18 15 -15 21 4 5 2 9 -4 9 -5
0 -8 9 -6 19 3 15 -1 18 -13 14 -14 -4 -14 -3 -3 5 8 6 20 8 27 5 13 -5 14 21
1 33 -11 11 13 45 26 37 7 -4 20 -9 30 -10z m2567 2 c0 -2 -9 -3 -19 -2 -11 0
-18 5 -15 9 4 6 34 0 34 -7z m-2125 -13 c-3 -3 -11 0 -18 7 -9 10 -8 11 6 5
10 -3 15 -9 12 -12z m-515 -1 c0 -6 -4 -12 -8 -15 -5 -3 -9 1 -9 9 0 8 4 15 9
15 4 0 8 -4 8 -9z m830 -15 c0 11 25 -25 33 -48 4 -12 2 -15 -8 -12 -8 3 -13
9 -12 12 1 4 -2 7 -6 7 -5 0 -14 10 -20 21 -10 19 -14 20 -25 8 -7 -8 -8 -14
-2 -14 5 0 10 -8 11 -17 0 -12 2 -13 6 -5 4 10 8 10 19 1 8 -6 11 -16 7 -23
-4 -6 -9 -20 -10 -31 -3 -17 -1 -17 8 -5 8 12 9 11 4 -7 -4 -16 0 -25 15 -33
11 -6 20 -8 20 -5 0 3 10 0 23 -7 12 -7 30 -12 39 -13 9 0 20 -4 25 -9 5 -6 2
-6 -6 -1 -11 6 -13 4 -8 -8 3 -9 3 -16 -1 -16 -19 3 -22 -3 -11 -22 8 -15 8
-19 0 -15 -6 4 -11 3 -11 -2 0 -5 -7 -9 -15 -9 -17 0 -17 0 -9 21 3 9 11 13
17 9 6 -3 7 -1 3 6 -4 6 -12 8 -18 5 -6 -4 -5 3 2 16 10 18 9 21 -1 15 -7 -5
-10 -4 -5 3 7 12 -20 10 -31 -3 -4 -4 -2 -5 5 -1 6 4 12 4 13 -1 0 -4 2 -18 3
-30 2 -12 -2 -19 -9 -17 -11 5 -15 18 -16 57 0 12 -5 17 -15 13 -9 -3 -12 -1
-9 4 3 6 1 10 -4 10 -6 0 -11 7 -11 15 0 8 -3 14 -7 14 -19 -3 -33 2 -33 12 0
5 4 8 9 4 6 -3 15 3 20 14 15 27 14 30 -9 26 -11 -2 -22 0 -25 5 -3 5 -12 7
-20 3 -8 -3 -15 0 -15 6 0 6 3 10 8 10 19 -3 33 2 27 10 -3 5 2 17 11 26 12
12 19 13 30 4 8 -6 14 -8 14 -3z m1188 -4 c-2 -20 3 -32 15 -29 6 1 11 -4 9
-11 -2 -9 5 -12 20 -8 13 3 17 3 10 0 -9 -4 -7 -10 7 -22 18 -16 17 -18 -15
-49 -19 -18 -34 -30 -34 -26 0 3 -8 -3 -18 -13 -25 -27 -69 -62 -56 -44 7 8
10 32 9 52 -2 24 2 38 11 42 12 5 11 13 -6 46 -16 31 -18 45 -10 58 10 15 10
15 6 -3 -3 -11 -1 -27 5 -35 8 -12 9 -11 5 6 -5 15 -2 21 9 21 9 0 14 -6 10
-14 -3 -7 -8 -20 -11 -28 -7 -17 11 -21 21 -5 3 6 11 10 17 10 7 0 7 -4 -1
-13 -6 -8 -7 -18 -3 -22 4 -5 0 -6 -9 -3 -9 4 -16 1 -16 -8 0 -7 4 -11 8 -8 4
2 6 -7 3 -22 -3 -16 -1 -23 6 -19 6 4 10 12 9 18 -3 25 1 38 11 32 5 -3 6 -13
3 -22 -6 -15 -5 -16 9 -3 11 11 13 17 4 23 -7 6 -4 7 7 3 12 -4 16 -2 11 6 -5
7 -3 8 6 3 8 -5 11 -4 6 3 -4 6 -14 8 -23 5 -10 -4 -14 -2 -10 4 4 6 -2 18
-12 27 -15 13 -20 14 -24 4 -3 -7 -5 -2 -4 12 1 15 -3 24 -10 23 -13 -3 -17 9
-7 20 7 7 34 -2 32 -11z m505 6 c-12 -21 -12 -39 0 -37 23 3 40 -1 34 -8 -4
-3 0 -17 8 -30 9 -13 11 -23 6 -23 -5 0 -13 6 -18 13 -8 12 -9 18 -12 38 -1 8
-6 8 -16 -1 -13 -11 -18 -10 -28 5 -12 16 -15 16 -29 1 -12 -12 -18 -13 -21
-3 -4 9 -6 9 -6 0 -1 -6 4 -15 9 -18 6 -3 10 -11 10 -17 0 -7 -4 -7 -13 1 -10
8 -14 7 -14 -4 0 -8 4 -12 8 -9 4 2 13 -6 20 -18 11 -21 11 -22 -4 -9 -10 7
-17 10 -17 5 0 -5 -5 -2 -10 6 -6 9 -10 10 -10 3 0 -6 4 -14 8 -17 4 -2 7 -17
6 -33 -2 -45 -4 -49 -13 -34 -7 11 -10 9 -16 -9 -6 -18 -9 -20 -16 -9 -12 19
-11 32 0 24 15 -9 35 35 22 48 -7 7 -7 16 1 31 17 29 18 46 5 46 -7 0 -3 7 7
15 10 8 23 12 27 9 5 -3 9 0 9 6 0 6 5 8 10 5 6 -3 10 -1 10 4 0 6 -5 11 -12
11 -6 0 -8 3 -5 6 4 4 13 2 20 -5 11 -9 17 -8 27 4 15 18 24 20 13 3z m-2198
-8 c3 -6 -1 -7 -9 -4 -18 7 -21 14 -7 14 6 0 13 -4 16 -10z m675 4 c0 -8 -19
-13 -24 -6 -3 5 1 9 9 9 8 0 15 -2 15 -3z m821 -3 c0 12 1 12 6 0 4 -10 7 -10
13 -1 5 8 9 7 13 -5 4 -9 3 -14 -2 -11 -14 9 -21 -20 -8 -34 9 -10 9 -11 0 -6
-14 8 -65 -22 -58 -34 3 -4 -6 -15 -20 -24 -14 -9 -25 -12 -25 -6 0 5 6 10 13
11 9 0 9 2 0 5 -7 3 -9 12 -6 20 4 12 8 12 20 -3 8 -10 11 -12 8 -5 -4 8 1 19
11 26 12 10 14 15 5 20 -9 6 -7 12 6 22 16 13 16 14 1 8 -10 -3 -18 -2 -18 3
0 17 13 23 27 12 10 -9 13 -8 14 2z m-1546 -10 c3 -5 2 -12 -3 -15 -5 -3 -9 1
-9 9 0 17 3 19 12 6z m1409 -4 c-5 -15 24 -19 41 -7 6 4 18 10 27 13 13 4 15
2 11 -10 -5 -12 -3 -14 8 -8 8 4 11 5 7 0 -4 -4 -3 -14 4 -22 10 -12 7 -12
-15 -2 -15 7 -24 16 -20 22 3 6 1 7 -6 3 -6 -4 -9 -11 -7 -15 3 -4 -4 -13 -15
-19 -17 -11 -20 -10 -17 2 2 8 -1 14 -7 13 -5 -1 -9 -8 -7 -17 2 -12 1 -12 -6
-1 -7 9 -12 10 -16 2 -4 -6 -2 -11 3 -11 20 0 11 -16 -9 -17 -11 -1 -19 3 -17
9 1 6 -6 12 -16 13 -9 2 -15 -1 -11 -6 7 -12 -7 -11 -26 1 -17 11 -14 12 42
14 36 2 44 12 27 33 -8 9 -9 14 -2 10 6 -4 14 -3 18 3 9 14 15 12 9 -3z m962
1 c4 4 3 0 -4 -10 -13 -17 -1 -35 16 -24 5 3 8 -6 8 -19 -1 -14 -5 -25 -9 -25
-4 0 -12 0 -18 0 -8 0 -8 4 0 14 10 12 8 17 -7 25 -17 9 -19 7 -17 -14 2 -17
-3 -26 -17 -31 -17 -5 -18 -8 -7 -16 10 -7 8 -7 -8 -3 -14 4 -23 2 -23 -4 0
-6 -4 -11 -9 -11 -6 0 -8 9 -6 19 2 13 -1 18 -9 15 -7 -3 -13 2 -13 11 0 19 6
19 28 -1 21 -19 46 -10 29 11 -8 9 -4 17 16 29 16 11 23 23 20 33 -5 12 -4 13
7 5 8 -7 18 -8 23 -4z m-2541 -13 c11 1 29 6 40 10 14 5 16 4 6 -3 -11 -8 -11
-10 0 -15 12 -4 12 -7 0 -18 -8 -8 -11 -9 -7 -2 10 18 -11 25 -34 13 -20 -11
-23 -35 -4 -35 20 0 33 -17 30 -38 -3 -12 -5 -25 -5 -28 -1 -3 -7 -6 -15 -6
-18 0 -39 34 -26 42 19 12 10 22 -17 21 -22 -1 -28 4 -29 19 0 23 27 60 35 47
3 -5 15 -8 26 -7z m801 -47 c-7 -5 -6 -8 4 -8 12 -1 11 -3 -3 -11 -18 -11 -14
-29 6 -29 7 0 6 4 -3 10 -8 5 -10 10 -4 10 6 0 16 -6 22 -13 11 -13 6 -16 -43
-19 -39 -2 -47 2 -41 18 4 9 1 23 -5 30 -6 8 -8 15 -3 15 5 1 16 2 24 3 9 0
14 9 12 19 -3 18 -3 18 21 0 17 -12 21 -20 13 -25z m1617 17 c19 5 20 5 4 -5
-9 -6 -15 -15 -12 -20 3 -4 -2 -11 -11 -14 -17 -6 -10 -26 9 -26 7 0 6 4 -3
10 -8 5 -10 10 -5 10 6 0 17 -5 25 -10 13 -9 13 -10 0 -10 -12 -1 -11 -3 3
-11 9 -5 23 -7 30 -2 6 4 19 8 27 8 8 0 14 6 12 13 -1 8 2 11 7 8 5 -4 11 -2
13 3 6 17 37 -15 42 -42 2 -15 2 -26 -2 -24 -4 1 -26 -17 -49 -40 -24 -23 -43
-39 -43 -36 0 3 -8 -1 -18 -10 -9 -9 -30 -14 -45 -13 -19 2 -31 -3 -37 -15
-10 -18 -44 -20 -68 -5 -7 4 -16 5 -21 2 -11 -7 -8 21 4 31 4 4 5 3 2 -3 -3
-6 -1 -11 6 -11 7 0 19 -2 27 -4 8 -2 14 2 13 9 -2 6 1 12 5 12 17 0 21 -14 9
-29 -11 -14 -10 -14 5 -2 10 7 15 18 11 24 -3 6 -1 7 5 3 8 -5 10 -1 5 9 -5
13 -7 14 -14 3 -5 -7 -9 -10 -9 -6 0 3 -3 13 -6 21 -8 22 23 15 40 -8 14 -20
51 -31 39 -12 -4 7 0 8 11 4 10 -4 15 -3 11 3 -4 6 -3 10 2 9 27 -5 31 3 13
21 -12 12 -18 26 -14 32 4 7 12 1 21 -16 14 -27 26 -36 17 -12 -3 9 6 19 25
27 21 9 26 16 18 22 -8 6 -6 7 5 3 10 -3 20 -1 23 5 4 5 3 9 -2 8 -20 -3 -34
2 -28 11 4 6 12 7 18 4 8 -4 7 -2 -1 7 -11 12 -14 12 -22 -1 -5 -8 -6 -18 -3
-23 3 -5 -4 -6 -16 -2 -14 4 -21 2 -21 -6 0 -7 -3 -9 -7 -6 -3 4 -12 2 -18 -3
-9 -7 -14 -6 -18 4 -3 8 -14 19 -25 25 -17 9 -19 7 -16 -14 1 -14 -2 -25 -7
-25 -5 0 -9 4 -9 9 0 5 -6 11 -13 14 -7 3 -13 -3 -13 -13 0 -11 6 -16 14 -12
12 4 12 2 1 -17 -8 -12 -16 -16 -18 -10 -2 8 -7 7 -13 -2 -7 -10 -8 -8 -2 6 4
11 7 34 7 52 1 30 2 30 22 17 19 -12 22 -12 22 1 0 8 -5 15 -10 15 -5 0 -4 7
3 15 11 13 10 15 -6 9 -14 -4 -15 -3 -5 4 9 7 10 11 2 17 -9 5 -9 10 0 22 11
12 14 12 21 -2 6 -10 17 -14 31 -10z m-2543 -5 c0 5 5 10 10 10 12 0 9 -22 -5
-32 -14 -11 -25 -10 -22 1 1 5 -7 17 -18 26 -19 16 -18 16 8 1 15 -9 27 -12
27 -6z m1786 -2 c4 -7 3 -8 -4 -4 -13 8 -35 -28 -24 -39 4 -5 -2 -5 -12 -1
-15 5 -17 4 -8 -7 9 -10 8 -14 -3 -14 -7 0 -14 3 -13 6 3 27 -3 33 -17 21 -9
-7 -13 -21 -10 -30 3 -10 0 -20 -8 -23 -9 -3 -13 5 -12 27 0 18 6 31 13 31 7
0 17 7 22 15 5 8 10 11 10 6 0 -5 6 -3 13 3 8 6 17 8 20 4 4 -3 7 -1 7 5 0 15
17 15 26 0z m271 -13 c0 -8 -4 -12 -9 -9 -5 3 -6 10 -3 15 9 13 12 11 12 -6z
m-399 -7 c0 -7 3 -24 6 -38 5 -24 4 -24 -9 -6 -8 10 -12 23 -9 27 3 5 -3 6
-12 2 -11 -4 -13 -8 -6 -11 7 -2 12 -8 12 -13 0 -6 -5 -7 -10 -4 -6 4 -18 1
-26 -6 -13 -11 -15 -10 -12 6 1 11 17 27 33 36 17 9 30 17 31 18 0 0 1 -5 2
-11z m-1367 -71 c-10 -9 -11 -8 -5 6 3 10 9 15 12 12 3 -3 0 -11 -7 -18z
m2259 -7 c9 -16 8 -19 -6 -13 -13 5 -15 3 -9 -7 6 -9 4 -11 -4 -5 -10 6 -11 3
-2 -12 6 -11 7 -23 3 -27 -3 -4 2 -4 13 0 11 5 14 9 7 12 -7 2 -12 8 -12 13 0
16 15 9 29 -13 7 -13 10 -20 6 -15 -5 4 -19 0 -32 -8 -13 -9 -23 -14 -24 -13
0 2 -2 13 -3 25 -2 13 -6 26 -11 30 -4 5 -5 -1 -1 -12 6 -17 5 -18 -6 -7 -11
11 -9 16 7 28 11 8 21 19 21 24 4 27 10 27 24 0z m75 1 c3 -6 -4 -15 -15 -21
-20 -11 -21 -10 -10 9 12 23 16 25 25 12z m-1278 -43 c1 -11 -1 -18 -4 -14 -3
3 -12 1 -18 -4 -9 -8 -12 -4 -12 13 0 29 32 34 34 5z m1079 -5 c8 13 11 12 21
-9 9 -21 8 -26 -7 -34 -13 -7 -21 -7 -25 0 -4 7 -12 7 -25 0 -25 -13 -30 -13
-30 5 0 8 5 15 12 15 6 0 3 10 -8 22 -10 12 -14 18 -7 15 6 -4 15 -2 19 4 5 8
12 4 24 -11 15 -20 18 -21 26 -7z m-2112 9 c3 -5 -1 -9 -9 -9 -8 0 -12 4 -9 9
3 4 7 8 9 8 2 0 6 -4 9 -8z m2006 -4 c0 -4 -4 -8 -9 -8 -6 0 -12 4 -15 8 -3 5
1 9 9 9 8 0 15 -4 15 -9z m-1412 -53 c14 -30 16 -46 3 -26 -5 7 -11 9 -14 4
-4 -6 5 -16 18 -23 14 -7 25 -17 25 -22 0 -11 -23 -6 -32 7 -7 10 -11 11 -43
14 -9 1 -12 7 -9 16 6 14 8 13 20 -2 13 -16 13 -16 5 7 -16 47 7 69 27 25z
m1387 6 c3 -5 2 -12 -3 -15 -5 -3 -9 1 -9 9 0 17 3 19 12 6z m-1347 -26 c0
-28 -23 -28 -24 0 -1 12 4 22 11 22 7 0 13 -10 13 -22z m-535 -60 c-3 -9 -8
-14 -10 -11 -3 3 -2 9 2 15 9 16 15 13 8 -4z m-76 -10 c0 -8 -4 -12 -9 -9 -5
3 -6 10 -3 15 9 13 12 11 12 -6z m58 -63 c-3 -3 -11 0 -18 7 -9 10 -8 11 6 5
10 -3 15 -9 12 -12z m5 -68 c0 -8 -19 -13 -24 -6 -3 5 1 9 9 9 8 0 15 -2 15
-3z m1805 -4 c-3 -5 -12 -10 -18 -10 -7 0 -6 4 3 10 19 12 23 12 15 0z m-975
-74 c0 -2 -8 -10 -17 -17 -16 -13 -17 -12 -4 4 13 16 21 21 21 13z m-730 -46
c0 -5 -5 -10 -11 -10 -5 0 -7 5 -4 10 3 6 8 10 11 10 2 0 4 -4 4 -10z m-4 -66
c1 -9 0 -13 -4 -10 -3 4 -7 14 -8 22 -1 9 0 13 4 10 3 -4 7 -14 8 -22z m917
-9 c-3 -9 -8 -14 -10 -11 -3 3 -2 9 2 15 9 16 15 13 8 -4z m761 -31 c3 -8 2
-12 -4 -9 -6 3 -10 10 -10 16 0 14 7 11 14 -7z m-1636 -39 c-3 -3 -9 2 -12 12
-6 14 -5 15 5 6 7 -7 10 -15 7 -18z m1572 -9 c0 -2 -8 -10 -17 -17 -16 -13
-17 -12 -4 4 13 16 21 21 21 13z m-56 -32 c3 -8 2 -12 -4 -9 -6 3 -10 10 -10
16 0 14 7 11 14 -7z m-1179 -22 c-3 -3 -11 0 -18 7 -9 10 -8 11 6 5 10 -3 15
-9 12 -12z m705 -6 c0 -2 -7 -7 -16 -10 -8 -3 -12 -2 -9 4 6 10 25 14 25 6z
m-126 -24 c3 -5 -1 -9 -9 -9 -8 0 -12 4 -9 9 3 4 7 8 9 8 2 0 6 -4 9 -8z
m-297 -27 c0 -8 -4 -12 -9 -9 -5 3 -6 10 -3 15 9 13 12 11 12 -6z m418 6 c3
-5 2 -12 -3 -15 -5 -3 -9 1 -9 9 0 17 3 19 12 6z m40 -10 c3 -5 2 -12 -3 -15
-5 -3 -9 1 -9 9 0 17 3 19 12 6z m-975 -7 c0 -8 -19 -13 -24 -6 -3 5 1 9 9 9
8 0 15 -2 15 -3z m240 2 c0 -2 -7 -7 -16 -10 -8 -3 -12 -2 -9 4 6 10 25 14 25
6z m450 -2 c0 -8 -19 -13 -24 -6 -3 5 1 9 9 9 8 0 15 -2 15 -3z m408 -29 c-3
-3 -9 2 -12 12 -6 14 -5 15 5 6 7 -7 10 -15 7 -18z m-582 3 c4 -7 4 -10 -1 -6
-4 4 -15 2 -24 -5 -14 -11 -14 -10 -2 6 16 20 18 21 27 5z m-63 -13 c-3 -9 -8
-14 -10 -11 -3 3 -2 9 2 15 9 16 15 13 8 -4z m401 -3 c3 -5 -1 -9 -9 -9 -8 0
-12 4 -9 9 3 4 7 8 9 8 2 0 6 -4 9 -8z m-474 -22 c0 -5 -5 -10 -11 -10 -5 0
-7 5 -4 10 3 6 8 10 11 10 2 0 4 -4 4 -10z m151 -13 c-10 -9 -11 -8 -5 6 3 10
9 15 12 12 3 -3 0 -11 -7 -18z m83 7 c3 -8 2 -12 -4 -9 -6 3 -10 10 -10 16 0
14 7 11 14 -7z m360 0 c3 -8 2 -12 -4 -9 -6 3 -10 10 -10 16 0 14 7 11 14 -7z
m-474 2 c0 -2 -8 -10 -17 -17 -16 -13 -17 -12 -4 4 13 16 21 21 21 13z m-44
-38 c3 -4 -1 -5 -10 -4 -8 1 -18 5 -22 8 -3 4 1 5 10 4 8 -1 18 -5 22 -8z
m161 -43 c0 -8 -4 -12 -9 -9 -5 3 -6 10 -3 15 9 13 12 11 12 -6z m114 -8 c-10
-9 -11 -8 -5 6 3 10 9 15 12 12 3 -3 0 -11 -7 -18z m-497 -13 c3 -8 2 -12 -4
-9 -6 3 -10 10 -10 16 0 14 7 11 14 -7z m206 6 c0 -5 -5 -10 -11 -10 -5 0 -7
5 -4 10 3 6 8 10 11 10 2 0 4 -4 4 -10z m485 0 c3 -6 -1 -7 -9 -4 -18 7 -21
14 -7 14 6 0 13 -4 16 -10z m80 0 c-3 -5 -12 -10 -18 -10 -7 0 -6 4 3 10 19
12 23 12 15 0z m-625 -25 c0 -2 -9 -3 -19 -2 -11 0 -18 5 -15 9 4 6 34 0 34
-7z m520 -210 c0 -8 -1 -18 -2 -21 -2 -3 5 -10 14 -15 30 -17 -7 -75 -47 -74
-17 0 -20 6 -17 39 2 41 25 86 42 86 6 0 10 -7 10 -15z m281 -42 c13 -16 12
-17 -3 -4 -10 7 -18 15 -18 17 0 8 8 3 21 -13z"/>
<path d="M4856 6128 c3 -5 10 -6 15 -3 13 9 11 12 -6 12 -8 0 -12 -4 -9 -9z"/>
<path d="M2590 6166 c7 -7 13 -7 20 0 6 6 3 10 -10 10 -13 0 -16 -4 -10 -10z"/>
<path d="M2736 6017 c3 -10 9 -15 12 -12 3 3 0 11 -7 18 -10 9 -11 8 -5 -6z"/>
<path d="M2701 5972 c-1 -7 -5 -11 -10 -7 -5 3 -13 0 -17 -6 -5 -8 -3 -9 6 -4
10 6 12 4 6 -11 -7 -18 -6 -18 10 -2 9 9 14 22 11 30 -4 10 -6 10 -6 0z"/>
<path d="M2452 5851 c2 -7 7 -12 11 -12 12 1 9 15 -3 20 -7 2 -11 -2 -8 -8z"/>
<path d="M4951 5916 c-14 -17 8 -39 28 -27 10 6 9 10 -4 15 -9 3 -13 10 -10
16 9 15 -1 12 -14 -4z"/>
<path d="M4813 5638 c-2 -16 1 -18 10 -9 7 7 8 14 1 21 -6 6 -10 2 -11 -12z"/>
<path d="M4786 5612 c-3 -5 1 -9 9 -9 8 0 12 4 9 9 -3 4 -7 8 -9 8 -2 0 -6 -4
-9 -8z"/>
<path d="M3316 5165 c4 -8 8 -15 10 -15 2 0 4 7 4 15 0 8 -4 15 -10 15 -5 0
-7 -7 -4 -15z"/>
<path d="M3355 5170 c-3 -5 -3 -14 0 -20 3 -5 -1 -10 -9 -10 -20 0 -20 -3 4
-42 15 -24 20 -28 19 -13 -4 43 1 66 13 59 7 -4 8 -3 4 5 -4 6 -12 8 -18 5 -7
-5 -9 -1 -5 9 7 19 2 23 -8 7z"/>
<path d="M3400 5136 c0 -2 7 -7 16 -10 8 -3 12 -2 9 4 -6 10 -25 14 -25 6z"/>
<path d="M3376 5113 c-6 -14 -5 -15 5 -6 7 7 10 15 7 18 -3 3 -9 -2 -12 -12z"/>
<path d="M3315 5100 c3 -5 8 -10 11 -10 2 0 4 5 4 10 0 6 -5 10 -11 10 -5 0
-7 -4 -4 -10z"/>
<path d="M3999 5183 c-13 -17 -13 -17 5 -3 18 14 19 13 12 -5 -6 -16 -5 -18 5
-7 9 8 10 15 3 22 -8 8 -15 5 -25 -7z"/>
<path d="M4036 5165 c-3 -8 -1 -15 4 -15 6 0 10 7 10 15 0 8 -2 15 -4 15 -2 0
-6 -7 -10 -15z"/>
<path d="M3995 5147 c21 -13 27 -46 10 -60 -6 -5 -4 -7 5 -4 8 2 14 9 13 16
-2 6 8 13 22 17 14 3 25 11 25 17 0 6 -3 8 -6 4 -4 -3 -22 0 -41 8 -43 18 -55
19 -28 2z"/>
<path d="M4095 5151 c-3 -5 -2 -12 3 -15 5 -3 9 1 9 9 0 17 -3 19 -12 6z"/>
<path d="M4076 5113 c-4 -9 -3 -20 1 -24 4 -4 9 3 9 17 2 28 -1 31 -10 7z"/>
<path d="M4140 4736 c0 -2 8 -10 18 -17 15 -13 16 -12 3 4 -13 16 -21 21 -21
13z"/>
<path d="M5295 4730 c-3 -5 -1 -10 4 -10 6 0 11 5 11 10 0 6 -2 10 -4 10 -3 0
-8 -4 -11 -10z"/>
<path d="M2988 4707 c7 -8 9 -17 5 -20 -3 -4 -1 -7 5 -7 18 0 14 27 -4 34 -13
5 -14 4 -6 -7z"/>
<path d="M3333 4700 c-3 -11 -10 -17 -16 -13 -6 4 -7 1 -2 -7 6 -10 11 -9 22
5 14 20 17 35 7 35 -3 0 -8 -9 -11 -20z"/>
<path d="M3310 4650 c0 -5 5 -10 10 -10 6 0 10 5 10 10 0 6 -4 10 -10 10 -5 0
-10 -4 -10 -10z"/>
<path d="M5235 4646 c-13 -9 -15 -15 -6 -20 6 -4 9 -12 6 -17 -14 -21 4 -7 19
15 18 29 7 41 -19 22z m20 -6 c-3 -5 -12 -10 -18 -10 -7 0 -6 4 3 10 19 12 23
12 15 0z"/>
<path d="M3913 4635 c0 -8 4 -15 9 -15 4 0 8 4 8 9 0 6 -4 12 -8 15 -5 3 -9
-1 -9 -9z"/>
<path d="M4396 4644 c-8 -20 0 -32 14 -18 5 5 5 15 1 22 -6 11 -10 10 -15 -4z"/>
<path d="M2290 4571 c0 -7 -5 -9 -12 -5 -7 5 -8 3 -3 -5 5 -9 10 -10 18 -2 6
6 8 14 4 18 -4 3 -7 1 -7 -6z"/>
<path d="M3537 4472 c12 -11 19 -23 15 -26 -3 -4 2 -4 11 0 10 3 17 7 15 8 -2
1 -16 10 -33 20 -30 17 -30 17 -8 -2z"/>
<path d="M3590 4470 c0 -5 5 -10 10 -10 6 0 10 5 10 10 0 6 -4 10 -10 10 -5 0
-10 -4 -10 -10z"/>
<path d="M3655 4460 c-3 -5 -13 -7 -23 -4 -14 5 -14 4 -2 -4 10 -8 18 -8 27 0
9 7 13 7 13 0 0 -6 -5 -14 -10 -17 -8 -5 -7 -11 1 -21 14 -18 0 -18 -23 0 -10
7 -14 17 -10 21 4 5 1 5 -7 0 -12 -7 -12 -10 1 -19 8 -6 17 -15 19 -21 2 -5
10 -8 18 -7 13 3 13 1 1 -13 -9 -11 -16 -13 -24 -5 -5 5 -14 10 -20 10 -5 0
-1 -6 10 -14 11 -8 23 -11 29 -6 6 5 17 5 25 0 8 -6 12 -10 8 -11 -5 -1 -12
-3 -18 -4 -5 -1 -15 -3 -22 -4 -7 0 -4 -7 7 -14 10 -8 15 -19 11 -25 -8 -14
10 -25 26 -15 22 13 69 13 62 0 -4 -7 -1 -7 7 1 12 11 12 14 0 21 -8 6 -9 11
-3 15 6 3 13 2 17 -4 3 -5 14 -10 23 -10 12 0 10 4 -8 14 -14 7 -29 9 -35 4
-12 -11 -25 -10 -25 1 0 5 14 14 30 21 38 16 45 25 19 27 -11 1 -17 -2 -14 -8
11 -16 -7 -10 -21 9 -16 20 -18 42 -4 42 6 0 9 -5 8 -12 -2 -7 7 -13 19 -14
13 -1 20 3 16 9 -4 7 1 8 13 3 15 -6 17 -5 7 5 -10 10 -16 10 -25 1 -7 -7 -16
-12 -22 -12 -6 0 -5 5 2 12 18 18 14 30 -8 23 -15 -5 -18 -3 -14 9 4 10 1 16
-7 16 -7 0 -9 -3 -6 -7 8 -8 -11 -33 -25 -33 -6 0 -6 6 1 14 9 11 9 16 -1 22
-19 12 -37 13 -43 4z m32 -25 c-14 -10 -14 -12 1 -23 14 -10 12 -10 -7 -1 -22
11 -23 13 -8 24 9 6 13 16 9 20 -4 5 -1 5 7 0 12 -7 12 -10 -2 -20z m33 -24
c-13 -24 -13 -34 -1 -26 6 3 15 -3 21 -14 8 -16 8 -19 -3 -15 -16 6 -19 -25
-4 -44 8 -10 7 -12 -4 -10 -8 2 -20 12 -27 23 -8 13 -12 15 -11 5 3 -29 -1
-40 -13 -40 -9 0 -9 3 0 12 9 9 8 14 -1 22 -7 6 -10 10 -8 9 2 -2 10 2 17 8
13 11 8 43 -5 34 -4 -2 -8 3 -8 11 0 8 6 13 14 10 7 -3 17 4 23 14 6 11 13 20
16 20 2 0 0 -9 -6 -19z"/>
<path d="M3700 4368 c0 -4 4 -8 9 -8 6 0 12 4 15 8 3 5 -1 9 -9 9 -8 0 -15 -4
-15 -9z"/>
<path d="M3826 4452 c-3 -5 1 -9 9 -9 8 0 12 4 9 9 -3 4 -7 8 -9 8 -2 0 -6 -4
-9 -8z"/>
<path d="M3595 4439 c-4 -6 -5 -12 -2 -15 2 -3 7 2 10 11 7 17 1 20 -8 4z"/>
<path d="M3788 4443 c7 -3 16 -2 19 1 4 3 -2 6 -13 5 -11 0 -14 -3 -6 -6z"/>
<path d="M3885 4440 c-3 -5 -8 -19 -10 -30 -3 -18 -1 -19 18 -9 32 17 35 23 9
14 -22 -6 -23 -5 -13 14 12 21 8 30 -4 11z"/>
<path d="M3835 4412 c5 -16 3 -22 -7 -20 -7 2 -13 -6 -13 -17 0 -11 -9 -23
-20 -27 -17 -6 -16 -7 5 -5 20 2 24 7 22 26 -2 14 0 21 6 17 16 -10 24 12 12
31 -9 16 -10 15 -5 -5z"/>
<path d="M3555 4410 c-3 -5 -2 -10 4 -10 5 0 13 5 16 10 3 6 2 10 -4 10 -5 0
-13 -4 -16 -10z"/>
<path d="M3493 4387 c-3 -6 -1 -7 5 -3 7 4 12 2 12 -5 0 -8 5 -7 17 2 15 12
16 12 10 -3 -3 -10 -2 -18 4 -18 6 0 9 8 7 17 -3 18 -45 26 -55 10z"/>
<path d="M3574 4385 c-3 -8 -3 -18 0 -24 4 -5 -2 -12 -11 -15 -15 -4 -15 -5 1
-3 14 1 20 10 20 30 2 30 -2 34 -10 12z"/>
<path d="M3910 4390 c0 -5 5 -10 10 -10 6 0 10 5 10 10 0 6 -4 10 -10 10 -5 0
-10 -4 -10 -10z"/>
<path d="M3470 4375 c0 -8 4 -15 10 -15 5 0 7 7 4 15 -4 8 -8 15 -10 15 -2 0
-4 -7 -4 -15z"/>
<path d="M3850 4375 c0 -8 29 -12 39 -5 9 5 4 8 -13 8 -14 0 -26 -2 -26 -3z"/>
<path d="M3913 4355 c0 -8 4 -15 9 -15 4 0 8 4 8 9 0 6 -4 12 -8 15 -5 3 -9
-1 -9 -9z"/>
<path d="M3444 4349 c-4 -8 -3 -9 4 -5 8 5 11 0 9 -15 -1 -16 4 -22 23 -25 18
-3 21 -2 10 5 -8 5 -18 7 -23 4 -5 -3 -6 4 -3 15 8 23 -8 39 -20 21z"/>
<path d="M3496 4352 c-10 -9 -7 -32 4 -32 5 0 7 6 4 14 -4 11 0 13 15 9 12 -3
21 -3 21 0 0 7 -38 16 -44 9z"/>
<path d="M3600 4356 c0 -2 7 -7 16 -10 8 -3 12 -2 9 4 -6 10 -25 14 -25 6z"/>
<path d="M3848 4353 c6 -2 9 -10 6 -15 -4 -7 -2 -8 5 -4 13 9 5 26 -12 25 -9
0 -8 -2 1 -6z"/>
<path d="M3875 4330 c-3 -5 -2 -10 4 -10 5 0 13 5 16 10 3 6 2 10 -4 10 -5 0
-13 -4 -16 -10z"/>
<path d="M3930 4330 c-8 -5 -10 -10 -5 -10 6 0 17 5 25 10 8 5 11 10 5 10 -5
0 -17 -5 -25 -10z"/>
<path d="M3617 4324 c-4 -4 -4 -11 -1 -15 7 -12 34 -11 34 1 0 5 -7 6 -17 3
-11 -4 -14 -3 -9 5 8 13 3 16 -7 6z"/>
<path d="M3575 4310 c-3 -6 1 -7 9 -4 18 7 21 14 7 14 -6 0 -13 -4 -16 -10z"/>
<path d="M3830 4311 c8 -5 18 -7 24 -4 5 4 7 -1 3 -10 -3 -10 -2 -17 4 -17 22
0 3 33 -21 37 -18 2 -21 1 -10 -6z"/>
<path d="M3897 4313 c-2 -5 -3 -15 -2 -23 0 -8 -11 -23 -25 -32 -32 -22 -18
-24 15 -2 14 9 22 20 19 25 -3 5 -1 9 5 9 5 0 11 -5 13 -12 3 -8 7 -6 11 5 3
9 3 16 -1 16 -20 -3 -33 2 -27 11 3 6 4 10 1 10 -3 0 -7 -3 -9 -7z"/>
<path d="M3953 4294 c0 -17 2 -22 7 -13 5 6 6 18 3 26 -8 19 -10 16 -10 -13z"/>
<path d="M3433 4297 c0 -9 4 -14 8 -12 4 3 10 -2 13 -11 3 -8 10 -13 15 -10 5
4 12 1 14 -4 4 -7 5 -6 4 1 -2 6 -6 10 -10 9 -5 0 -16 9 -26 21 -14 17 -18 19
-18 6z"/>
<path d="M3553 4284 c0 -17 2 -22 7 -13 5 6 6 18 3 26 -8 19 -10 16 -10 -13z"/>
<path d="M3390 4290 c0 -5 7 -7 15 -4 8 4 15 8 15 10 0 2 -7 4 -15 4 -8 0 -15
-4 -15 -10z"/>
<path d="M3812 4283 c2 -9 14 -18 28 -20 18 -2 21 -1 10 6 -8 5 -18 7 -24 4
-5 -4 -7 1 -3 10 3 10 2 17 -4 17 -6 0 -9 -7 -7 -17z"/>
<path d="M3518 4283 c7 -3 16 -2 19 1 4 3 -2 6 -13 5 -11 0 -14 -3 -6 -6z"/>
<path d="M3990 4279 c0 -5 -5 -7 -12 -3 -7 4 -8 3 -4 -4 4 -6 13 -9 21 -5 17
6 20 23 5 23 -5 0 -10 -5 -10 -11z"/>
<path d="M3404 4269 c-4 -7 -3 -9 4 -5 5 3 13 0 15 -6 4 -9 6 -10 6 -1 1 17
-16 25 -25 12z"/>
<path d="M3575 4270 c-2 -3 -3 -15 -1 -26 3 -20 36 -34 36 -15 0 6 -6 8 -13 5
-8 -3 -13 4 -14 16 -1 11 2 18 7 15 5 -3 11 -2 14 3 3 5 -2 9 -10 9 -8 0 -17
-3 -19 -7z"/>
<path d="M3630 4271 c8 -5 18 -7 23 -4 5 3 6 -4 3 -15 -8 -23 8 -39 20 -21 4
8 3 9 -4 5 -8 -5 -11 0 -9 15 1 16 -4 22 -23 25 -18 3 -21 2 -10 -5z"/>
<path d="M3765 4270 c-5 -9 -4 -11 3 -6 7 4 12 1 12 -8 0 -19 16 -21 26 -3 4
6 4 9 -1 5 -4 -4 -13 0 -20 9 -9 13 -14 13 -20 3z"/>
<path d="M3530 4240 c9 -17 30 -20 30 -4 0 3 -4 2 -10 -1 -5 -3 -10 1 -10 9 0
9 -5 16 -10 16 -7 0 -7 -7 0 -20z"/>
<path d="M3616 4245 c4 -8 8 -15 10 -15 2 0 4 7 4 15 0 8 -4 15 -10 15 -5 0
-7 -7 -4 -15z"/>
<path d="M3900 4250 c-9 -6 -10 -10 -3 -10 6 0 15 5 18 10 8 12 4 12 -15 0z"/>
<path d="M3930 4250 c0 -5 5 -10 10 -10 6 0 10 5 10 10 0 6 -4 10 -10 10 -5 0
-10 -4 -10 -10z"/>
<path d="M3967 4249 c7 -7 15 -10 18 -7 3 3 -2 9 -12 12 -14 6 -15 5 -6 -5z"/>
<path d="M3870 4221 c0 -6 4 -13 10 -16 6 -3 7 1 4 9 -7 18 -14 21 -14 7z"/>
<path d="M3910 4220 c0 -5 5 -10 10 -10 6 0 10 5 10 10 0 6 -4 10 -10 10 -5 0
-10 -4 -10 -10z"/>
<path d="M3957 4216 c-4 -10 -3 -15 3 -11 6 3 10 1 10 -6 0 -7 3 -10 6 -6 3 3
2 13 -4 22 -8 16 -9 16 -15 1z"/>
<path d="M3551 4210 c-9 -5 -4 -7 13 -7 29 0 32 2 13 10 -8 3 -20 2 -26 -3z"/>
<path d="M4182 4200 c7 -11 17 -20 22 -20 5 0 1 9 -9 20 -10 11 -20 20 -22 20
-2 0 2 -9 9 -20z"/>
<path d="M3936 4187 c3 -10 9 -15 12 -12 3 3 0 11 -7 18 -10 9 -11 8 -5 -6z"/>
<path d="M3950 4110 c0 -5 5 -10 11 -10 5 0 7 5 4 10 -3 6 -8 10 -11 10 -2 0
-4 -4 -4 -10z"/>
<path d="M5055 4591 c-3 -6 -1 -11 4 -11 6 0 10 -4 9 -9 -2 -5 2 -9 7 -10 14
-1 13 31 -2 36 -6 2 -14 -1 -18 -6z"/>
<path d="M2310 4529 c0 -4 5 -11 11 -15 8 -4 7 -9 -2 -16 -11 -8 -10 -9 3 -4
10 3 20 1 23 -4 4 -6 11 -10 18 -10 6 0 1 7 -11 16 -12 8 -22 20 -22 26 0 7 4
7 13 -1 10 -8 14 -7 14 2 0 7 -11 13 -24 13 -12 0 -23 -3 -23 -7z"/>
<path d="M2390 4346 c0 -2 7 -7 16 -10 8 -3 12 -2 9 4 -6 10 -25 14 -25 6z"/>
<path d="M3168 4542 c-10 -2 -18 -8 -18 -13 0 -11 23 -7 32 6 5 6 8 5 8 -2 0
-7 5 -13 10 -13 14 0 12 17 -2 22 -7 2 -21 3 -30 0z"/>
<path d="M3987 4506 c-4 -10 -1 -13 9 -9 15 6 19 23 5 23 -5 0 -11 -7 -14 -14z"/>
<path d="M3990 4450 c0 -5 5 -10 10 -10 6 0 10 5 10 10 0 6 -4 10 -10 10 -5 0
-10 -4 -10 -10z"/>
<path d="M2934 4353 c10 -13 22 -20 26 -18 5 3 11 0 13 -5 4 -7 5 -6 4 1 -2 6
-5 9 -9 7 -3 -2 -16 6 -29 17 l-24 20 19 -22z"/>
<path d="M4385 4490 c-3 -6 1 -7 9 -4 18 7 21 14 7 14 -6 0 -13 -4 -16 -10z"/>
<path d="M4985 4441 c-6 -11 13 -26 22 -17 4 3 1 6 -6 6 -7 0 -9 5 -6 10 3 6
4 10 1 10 -3 0 -7 -4 -11 -9z"/>
<path d="M4080 4480 c-9 -6 -10 -10 -3 -10 6 0 15 5 18 10 8 12 4 12 -15 0z"/>
<path d="M4203 4503 c-15 -5 -17 -23 -4 -23 5 0 11 7 15 15 3 8 4 15 3 14 -1
0 -8 -3 -14 -6z"/>
<path d="M4330 4396 c0 -2 7 -7 16 -10 8 -3 12 -2 9 4 -6 10 -25 14 -25 6z"/>
<path d="M3020 4412 c0 -6 -6 -9 -14 -6 -17 6 -31 -12 -16 -21 6 -4 8 -10 6
-14 -3 -4 4 -12 15 -19 12 -8 19 -9 19 -1 0 5 4 8 9 5 5 -4 8 0 7 6 -1 7 -6
14 -11 15 -6 0 -9 -3 -7 -8 1 -5 -2 -9 -8 -9 -14 0 -13 23 2 38 6 6 9 15 5 19
-4 3 -7 1 -7 -5z"/>
<path d="M3005 4310 c-3 -6 1 -7 9 -4 18 7 21 14 7 14 -6 0 -13 -4 -16 -10z"/>
<path d="M2566 4357 c3 -10 9 -15 12 -12 3 3 0 11 -7 18 -10 9 -11 8 -5 -6z"/>
<path d="M2467 4314 c3 -7 9 -14 14 -14 14 0 10 17 -5 23 -10 4 -13 1 -9 -9z"/>
<path d="M4387 4333 c-3 -5 -2 -15 3 -23 5 -9 4 -20 -3 -30 -10 -13 -10 -13 4
-3 9 7 15 22 14 33 -2 23 -11 35 -18 23z"/>
<path d="M4226 4425 c-9 -26 -7 -32 5 -12 6 10 9 21 6 23 -2 3 -7 -2 -11 -11z"/>
<path d="M5000 4390 c-9 -6 -10 -10 -3 -10 6 0 15 5 18 10 8 12 4 12 -15 0z"/>
<path d="M2465 4409 c-4 -5 2 -6 12 -2 16 6 16 4 -2 -18 l-20 -24 28 24 c15
14 27 25 27 26 0 6 -41 1 -45 -6z"/>
<path d="M2505 4340 c-3 -5 -5 -10 -3 -11 33 -8 38 -7 27 7 -14 17 -16 17 -24
4z"/>
<path d="M3292 4383 c-6 -2 -10 -9 -6 -14 6 -11 -8 -12 -22 -1 -5 4 -4 1 2 -6
13 -16 41 -7 41 13 0 8 -1 15 -1 14 -1 0 -7 -3 -14 -6z"/>
<path d="M3264 4332 c4 -3 14 -7 22 -8 9 -1 13 0 10 4 -4 3 -14 7 -22 8 -9 1
-13 0 -10 -4z"/>
<path d="M4885 4390 c3 -5 11 -10 16 -10 6 0 7 5 4 10 -3 6 -11 10 -16 10 -6
0 -7 -4 -4 -10z"/>
<path d="M4765 4251 c-3 -5 -1 -13 5 -16 8 -5 7 -12 -1 -23 -9 -11 -6 -11 7 2
13 13 15 20 6 23 -6 3 -10 9 -6 14 3 5 3 9 0 9 -3 0 -7 -4 -11 -9z"/>
<path d="M4815 4219 c-4 -6 -4 -13 -1 -16 3 -4 6 -1 6 6 0 7 5 9 12 5 7 -4 8
-3 4 4 -9 15 -13 15 -21 1z"/>
<path d="M3275 4190 c3 -5 8 -10 11 -10 2 0 4 5 4 10 0 6 -5 10 -11 10 -5 0
-7 -4 -4 -10z"/>
<path d="M3910 3130 c0 -5 5 -10 11 -10 5 0 7 5 4 10 -3 6 -8 10 -11 10 -2 0
-4 -4 -4 -10z"/>
<path d="M3884 3108 c-4 -7 -4 -10 1 -6 4 4 14 0 22 -10 13 -15 13 -15 3 6
-12 25 -16 27 -26 10z"/>
<path d="M2370 5850 c0 -5 5 -10 10 -10 6 0 10 5 10 10 0 6 -4 10 -10 10 -5 0
-10 -4 -10 -10z"/>
<path d="M2395 5829 c-11 -16 -1 -19 13 -3 7 8 8 14 3 14 -5 0 -13 -5 -16 -11z"/>
<path d="M5028 5813 c7 -3 16 -2 19 1 4 3 -2 6 -13 5 -11 0 -14 -3 -6 -6z"/>
<path d="M5520 5738 c-20 -33 -24 -51 -22 -97 2 -33 -8 -20 -15 21 -3 18 -11
48 -18 66 -27 63 -53 29 -51 -65 2 -62 2 -62 -15 -37 -24 37 -64 57 -79 39
-19 -23 -1 -71 46 -121 24 -26 44 -49 44 -50 0 -1 -24 0 -54 2 -74 4 -90 -15
-48 -55 44 -40 123 -54 176 -29 20 9 23 14 15 25 -9 10 -8 17 2 30 10 11 10
14 2 9 -17 -10 -18 35 -1 52 32 32 86 -6 73 -51 -10 -31 47 60 67 108 19 45
29 84 34 133 6 57 -32 36 -82 -46 -13 -20 -24 -32 -24 -26 0 6 3 14 7 18 11
11 13 68 2 88 -15 27 -37 22 -59 -14z"/>
<path d="M1880 5736 c-9 -25 -8 -46 5 -78 4 -11 3 -18 -4 -18 -6 0 -11 6 -11
13 0 21 -65 91 -77 84 -22 -14 6 -127 53 -212 24 -44 44 -56 44 -27 0 11 7 23
16 26 8 3 12 11 8 17 -4 8 -3 9 5 5 6 -4 8 -13 4 -19 -5 -9 -3 -9 8 0 12 10
18 8 32 -8 20 -23 19 -48 -3 -66 -10 -9 -11 -12 -2 -13 6 0 12 -8 12 -19 0
-41 127 -35 184 10 51 40 17 74 -57 57 -22 -5 -41 -7 -44 -5 -2 3 14 23 37 46
60 61 79 124 40 136 -25 8 -49 -10 -66 -50 -13 -29 -13 -28 -14 30 0 78 -8
105 -30 105 -18 0 -39 -59 -41 -112 0 -13 -7 2 -15 32 -23 84 -64 117 -84 66z"/>
<path d="M2574 5684 c-18 -14 -18 -14 6 -3 31 14 36 19 24 19 -6 0 -19 -7 -30
-16z"/>
<path d="M2630 5630 c0 -5 5 -10 10 -10 6 0 10 5 10 10 0 6 -4 10 -10 10 -5 0
-10 -4 -10 -10z"/>
<path d="M4930 5615 c0 -8 4 -15 10 -15 5 0 7 7 4 15 -4 8 -8 15 -10 15 -2 0
-4 -7 -4 -15z"/>
<path d="M2420 5610 c0 -5 5 -10 10 -10 6 0 10 5 10 10 0 6 -4 10 -10 10 -5 0
-10 -4 -10 -10z"/>
<path d="M2477 5605 c-8 -8 -18 -11 -22 -7 -5 4 -5 1 -1 -6 6 -11 12 -10 27 4
10 9 19 19 19 21 0 7 -9 2 -23 -12z"/>
<path d="M4965 5610 c-3 -6 1 -7 9 -4 18 7 21 14 7 14 -6 0 -13 -4 -16 -10z"/>
<path d="M4891 5603 c-1 -17 16 -25 25 -12 4 7 3 9 -4 5 -5 -3 -13 0 -15 6 -4
9 -6 10 -6 1z"/>
<path d="M2508 5593 c6 -2 18 -2 25 0 6 3 1 5 -13 5 -14 0 -19 -2 -12 -5z"/>
<path d="M4975 5590 c-3 -5 -3 -10 2 -10 4 0 2 -4 -5 -9 -11 -7 -11 -9 1 -14
12 -4 15 0 12 14 -3 15 0 19 11 15 9 -3 12 -1 9 4 -8 13 -22 13 -30 0z"/>
<path d="M2435 5570 c-3 -5 -1 -10 4 -10 6 0 11 5 11 10 0 6 -2 10 -4 10 -3 0
-8 -4 -11 -10z"/>
<path d="M2497 5565 c3 -10 1 -15 -7 -13 -7 2 -15 -4 -17 -12 -4 -12 -3 -12 5
-2 5 8 13 13 18 12 5 0 10 6 12 14 2 9 -1 16 -7 16 -6 0 -8 -7 -4 -15z"/>
<path d="M2530 5566 c0 -20 17 -29 26 -15 5 8 3 9 -6 4 -10 -6 -12 -4 -7 8 3
10 2 17 -3 17 -6 0 -10 -6 -10 -14z"/>
<path d="M2570 5570 c0 -5 5 -10 10 -10 6 0 10 5 10 10 0 6 -4 10 -10 10 -5 0
-10 -4 -10 -10z"/>
<path d="M4911 5570 c-9 -5 -4 -7 13 -7 29 0 32 2 13 10 -8 3 -20 2 -26 -3z"/>
<path d="M4873 5541 c0 -11 4 -18 8 -15 4 2 9 -1 11 -8 2 -6 12 -12 21 -14 9
-1 15 2 11 7 -3 5 -9 7 -14 4 -8 -5 -25 23 -22 38 1 4 -2 7 -7 7 -6 0 -9 -9
-8 -19z"/>
<path d="M2593 5525 c0 -14 3 -25 8 -25 4 0 6 10 4 21 -6 32 -12 34 -12 4z"/>
<path d="M4831 5534 c0 -11 3 -14 6 -6 3 7 2 16 -1 19 -3 4 -6 -2 -5 -13z"/>
<path d="M4923 5540 c2 -8 10 -15 17 -15 7 0 15 7 17 15 4 13 3 13 -6 0 -10
-13 -12 -13 -22 0 -9 13 -10 13 -6 0z"/>
<path d="M2428 5533 c6 -2 10 -9 7 -14 -4 -5 1 -6 10 -2 13 5 14 7 3 14 -7 5
-17 8 -23 8 -5 0 -4 -3 3 -6z"/>
<path d="M2505 5530 c-3 -5 -2 -10 4 -10 5 0 13 5 16 10 3 6 2 10 -4 10 -5 0
-13 -4 -16 -10z"/>
<path d="M4976 5528 c3 -5 10 -6 15 -3 13 9 11 12 -6 12 -8 0 -12 -4 -9 -9z"/>
<path d="M2550 5519 c0 -5 -5 -7 -12 -3 -7 4 -8 3 -4 -5 6 -9 12 -9 24 1 10 7
19 14 21 15 2 2 -3 3 -12 3 -9 0 -17 -5 -17 -11z"/>
<path d="M1920 5510 c-23 -7 -23 -8 -3 -9 12 -1 25 4 28 9 3 6 5 10 3 9 -2 -1
-14 -5 -28 -9z"/>
<path d="M2470 5510 c0 -5 5 -10 10 -10 6 0 10 5 10 10 0 6 -4 10 -10 10 -5 0
-10 -4 -10 -10z"/>
<path d="M4817 5507 c3 -5 14 -7 24 -4 10 3 20 -1 22 -9 3 -9 4 -8 3 2 0 11
-10 18 -28 18 -14 1 -24 -2 -21 -7z"/>
<path d="M4951 5510 c-9 -5 -4 -7 13 -7 29 0 32 2 13 10 -8 3 -20 2 -26 -3z"/>
<path d="M5514 5512 c3 -5 0 -13 -6 -15 -9 -4 -10 -6 -1 -6 17 -1 25 16 12 25
-7 4 -9 3 -5 -4z"/>
<path d="M4796 5497 c3 -10 9 -15 12 -12 3 3 0 11 -7 18 -10 9 -11 8 -5 -6z"/>
<path d="M5548 5503 c7 -3 16 -2 19 1 4 3 -2 6 -13 5 -11 0 -14 -3 -6 -6z"/>
<path d="M1950 5489 c0 -5 5 -7 10 -4 6 3 10 8 10 11 0 2 -4 4 -10 4 -5 0 -10
-5 -10 -11z"/>
<path d="M2500 5492 c0 -5 7 -9 15 -9 8 0 15 4 15 9 0 4 -7 8 -15 8 -8 0 -15
-4 -15 -8z"/>
<path d="M4890 5480 c6 -11 13 -20 16 -20 2 0 0 9 -6 20 -6 11 -13 20 -16 20
-2 0 0 -9 6 -20z"/>
<path d="M1912 5466 c7 -8 15 -12 17 -11 5 6 -10 25 -20 25 -5 0 -4 -6 3 -14z"/>
<path d="M2470 5470 c0 -5 5 -10 10 -10 6 0 10 5 10 10 0 6 -4 10 -10 10 -5 0
-10 -4 -10 -10z"/>
<path d="M2534 5469 c-4 -7 -3 -9 4 -5 5 3 13 0 15 -6 4 -9 6 -10 6 -1 1 17
-16 25 -25 12z"/>
<path d="M2615 5470 c3 -5 8 -10 11 -10 2 0 4 5 4 10 0 6 -5 10 -11 10 -5 0
-7 -4 -4 -10z"/>
<path d="M4819 5478 c-5 -18 -2 -55 4 -51 5 3 6 14 4 25 -4 14 -2 18 9 14 8
-3 14 -1 14 4 0 8 -28 15 -31 8z"/>
<path d="M4861 5458 c-1 -11 6 -16 18 -15 11 0 17 5 15 9 -3 5 -9 6 -14 3 -4
-3 -11 1 -13 7 -4 8 -6 7 -6 -4z"/>
<path d="M5552 5450 c0 -14 2 -19 5 -12 2 6 2 18 0 25 -3 6 -5 1 -5 -13z"/>
<path d="M1892 5443 c2 -12 12 -18 26 -17 18 1 22 -3 20 -20 -2 -14 3 -21 17
-23 15 -2 16 -1 5 5 -8 4 -15 16 -15 27 0 15 -6 20 -23 19 -16 -1 -22 3 -18
12 3 8 1 14 -5 14 -6 0 -9 -8 -7 -17z"/>
<path d="M2490 5450 c-11 -7 -11 -10 -2 -10 7 0 10 -5 6 -12 -4 -7 -3 -8 5 -4
6 4 8 12 5 18 -5 8 -1 9 10 5 10 -4 15 -3 11 3 -8 12 -16 12 -35 0z"/>
<path d="M2570 5450 c0 -5 5 -10 10 -10 6 0 10 5 10 10 0 6 -4 10 -10 10 -5 0
-10 -4 -10 -10z"/>
<path d="M5510 5451 c0 -5 5 -13 10 -16 6 -3 10 -2 10 4 0 5 -4 13 -10 16 -5
3 -10 2 -10 -4z"/>
<path d="M2536 5433 c-10 -10 -7 -33 4 -33 5 0 6 8 3 18 -6 15 -5 15 10 3 9
-7 17 -9 17 -3 0 12 -26 23 -34 15z"/>
<path d="M4837 5426 c-3 -8 0 -22 7 -32 10 -13 15 -14 21 -4 5 9 4 11 -3 6
-12 -7 -16 5 -13 32 2 16 -6 15 -12 -2z"/>
<path d="M4910 5430 c0 -5 5 -10 10 -10 6 0 10 5 10 10 0 6 -4 10 -10 10 -5 0
-10 -4 -10 -10z"/>
<path d="M2591 5414 c0 -11 3 -14 6 -6 3 7 2 16 -1 19 -3 4 -6 -2 -5 -13z"/>
<path d="M1870 5405 c0 -8 2 -15 4 -15 2 0 6 7 10 15 3 8 1 15 -4 15 -6 0 -10
-7 -10 -15z"/>
<path d="M4868 5413 c6 -2 18 -2 25 0 6 3 1 5 -13 5 -14 0 -19 -2 -12 -5z"/>
<path d="M5530 5415 c0 -8 29 -12 39 -5 9 5 4 8 -13 8 -14 0 -26 -2 -26 -3z"/>
<path d="M1895 5401 c-3 -6 5 -15 17 -21 21 -10 21 -10 6 3 -10 8 -15 17 -11
20 3 4 4 7 0 7 -3 0 -8 -4 -12 -9z"/>
<path d="M5508 5403 c6 -2 10 -9 7 -14 -4 -5 0 -6 8 -3 9 3 13 -2 13 -17 -1
-13 6 -23 17 -25 9 -1 15 2 11 7 -3 5 -10 6 -16 3 -7 -5 -9 0 -5 15 5 20 -17
42 -40 40 -4 0 -2 -3 5 -6z"/>
<path d="M5577 5384 c5 -13 3 -15 -7 -9 -9 5 -11 4 -6 -3 4 -7 11 -12 17 -12
12 0 12 27 -1 35 -6 4 -7 -1 -3 -11z"/>
<path d="M2508 5383 c6 -2 18 -2 25 0 6 3 1 5 -13 5 -14 0 -19 -2 -12 -5z"/>
<path d="M2554 5372 c3 -5 0 -13 -6 -15 -9 -4 -10 -6 -1 -6 17 -1 25 16 12 25
-7 4 -9 3 -5 -4z"/>
<path d="M1867 5343 c4 -11 3 -14 -5 -9 -8 5 -10 1 -5 -10 4 -11 8 -13 11 -6
2 7 8 9 14 6 6 -4 5 2 -1 15 -14 25 -23 28 -14 4z"/>
<path d="M1895 5351 c-3 -5 0 -13 6 -17 8 -4 9 -3 5 4 -4 7 -3 12 3 12 5 0 12
-6 14 -12 4 -10 6 -10 6 0 1 8 6 10 14 6 6 -4 9 -3 4 1 -11 13 -45 16 -52 6z"/>
<path d="M4868 5353 c6 -2 18 -2 25 0 6 3 1 5 -13 5 -14 0 -19 -2 -12 -5z"/>
<path d="M5513 5343 c0 -12 3 -20 6 -18 2 3 10 -3 18 -13 13 -16 13 -15 4 3
-22 43 -30 51 -28 28z"/>
<path d="M5592 5351 c-11 -7 -11 -9 0 -14 9 -3 15 1 15 9 0 8 -1 14 -1 14 -1
0 -7 -4 -14 -9z"/>
<path d="M1955 5330 c-3 -5 -1 -10 4 -10 6 0 11 5 11 10 0 6 -2 10 -4 10 -3 0
-8 -4 -11 -10z"/>
<path d="M1910 5308 c0 -6 7 -7 16 -4 12 4 15 2 10 -9 -3 -8 -1 -15 5 -15 6 0
9 7 7 17 -3 17 -38 28 -38 11z"/>
<path d="M1893 5291 c2 -14 9 -27 15 -29 7 -2 10 -8 6 -13 -3 -5 0 -9 5 -9 16
0 13 20 -4 26 -8 4 -13 9 -11 13 3 4 0 13 -5 21 -7 11 -8 9 -6 -9z"/>
<path d="M1869 5298 c-5 -18 -6 -38 -1 -34 7 8 12 36 6 36 -2 0 -4 -1 -5 -2z"/>
<path d="M5590 5290 c-9 -6 -10 -10 -3 -10 6 0 15 5 18 10 8 12 4 12 -15 0z"/>
<path d="M5540 5282 c0 -6 -8 -9 -17 -6 -15 5 -16 4 -3 -5 16 -11 40 3 27 16
-4 3 -7 1 -7 -5z"/>
<path d="M5557 5267 c-3 -8 -2 -20 3 -26 5 -9 8 -4 8 13 0 29 -3 32 -11 13z"/>
<path d="M1948 5263 c7 -3 16 -2 19 1 4 3 -2 6 -13 5 -11 0 -14 -3 -6 -6z"/>
<path d="M5590 5260 c-9 -6 -10 -10 -3 -10 6 0 15 5 18 10 8 12 4 12 -15 0z"/>
<path d="M1870 5250 c-12 -7 -10 -9 7 -7 12 0 19 5 17 9 -6 10 -6 10 -24 -2z"/>
<path d="M5534 5242 c3 -5 0 -13 -6 -15 -9 -4 -10 -6 -1 -6 17 -1 25 16 12 25
-7 4 -9 3 -5 -4z"/>
<path d="M1939 5233 c-1 -5 0 -17 1 -28 1 -16 -1 -18 -11 -7 -7 6 -17 12 -23
12 -5 0 -1 -6 9 -14 24 -18 38 -10 32 16 -4 14 -2 18 9 14 9 -3 12 -1 9 4 -7
12 -24 13 -26 3z"/>
<path d="M5556 5208 c3 -5 10 -6 15 -3 13 9 11 12 -6 12 -8 0 -12 -4 -9 -9z"/>
<path d="M1870 5190 c0 -5 5 -10 10 -10 6 0 10 5 10 10 0 6 -4 10 -10 10 -5 0
-10 -4 -10 -10z"/>
<path d="M5534 5188 c-4 -7 -3 -8 4 -4 12 7 16 -4 13 -34 -2 -13 0 -13 8 -1 6
10 6 21 0 33 -11 21 -15 22 -25 6z"/>
<path d="M5575 5191 c-3 -5 0 -13 6 -17 7 -4 9 -3 5 4 -3 5 0 13 6 15 9 4 10
6 1 6 -6 1 -14 -3 -18 -8z"/>
<path d="M5510 5181 c0 -7 -5 -9 -12 -5 -7 4 -10 3 -5 -1 4 -5 18 -10 30 -12
12 -2 18 0 12 5 -5 4 -13 11 -17 16 -5 5 -8 4 -8 -3z"/>
<path d="M1910 5173 c5 -2 8 -9 4 -14 -3 -5 0 -9 6 -9 15 0 7 23 -8 26 -7 1
-8 0 -2 -3z"/>
<path d="M1956 5165 c4 -8 8 -15 10 -15 2 0 4 7 4 15 0 8 -4 15 -10 15 -5 0
-7 -7 -4 -15z"/>
<path d="M1876 5153 c-6 -14 -5 -15 5 -6 7 7 10 15 7 18 -3 3 -9 -2 -12 -12z"/>
<path d="M5490 5146 c0 -2 7 -9 15 -16 9 -7 15 -8 15 -2 0 5 -7 12 -15 16 -8
3 -15 4 -15 2z"/>
<path d="M5574 5132 c3 -17 0 -22 -12 -20 -10 2 -20 10 -24 18 -6 11 -7 10 -5
-4 1 -11 11 -20 24 -22 27 -4 33 5 22 31 -9 18 -9 18 -5 -3z"/>
<path d="M1890 5130 c0 -5 5 -10 10 -10 6 0 10 5 10 10 0 6 -4 10 -10 10 -5 0
-10 -4 -10 -10z"/>
<path d="M1955 5129 c3 -4 -2 -10 -11 -13 -8 -3 -12 -10 -9 -16 3 -5 2 -10 -4
-10 -5 0 -12 5 -14 10 -3 6 -4 5 -3 -2 3 -14 26 -18 26 -5 -1 4 9 16 21 26 17
14 19 18 6 18 -9 0 -14 -4 -12 -8z"/>
<path d="M1975 5111 c-3 -5 -2 -12 3 -15 5 -3 9 1 9 9 0 17 -3 19 -12 6z"/>
<path d="M5485 5110 c-5 -8 -4 -11 2 -7 6 4 14 0 17 -9 4 -9 9 -14 13 -11 3 4
12 -1 20 -11 13 -15 13 -14 3 6 -7 13 -14 21 -17 18 -3 -3 -11 2 -18 11 -9 13
-14 13 -20 3z"/>
<path d="M1881 5094 c0 -11 3 -14 6 -6 3 7 2 16 -1 19 -3 4 -6 -2 -5 -13z"/>
<path d="M1973 5065 c-3 -9 -3 -19 1 -22 3 -4 6 1 6 11 0 10 5 14 12 10 7 -4
8 -3 4 4 -10 16 -15 15 -23 -3z"/>
<path d="M5484 5069 c-4 -7 -3 -9 4 -5 5 3 13 0 15 -6 4 -9 6 -10 6 -1 1 17
-16 25 -25 12z"/>
<path d="M5556 5053 c-4 -9 -3 -20 1 -24 4 -4 9 3 9 17 2 28 -1 31 -10 7z"/>
<path d="M1951 5044 c0 -11 3 -14 6 -6 3 7 2 16 -1 19 -3 4 -6 -2 -5 -13z"/>
<path d="M5521 5044 c0 -11 3 -14 6 -6 3 7 2 16 -1 19 -3 4 -6 -2 -5 -13z"/>
<path d="M1912 5034 c-7 -8 -8 -14 -3 -14 10 0 25 19 20 25 -2 1 -10 -3 -17
-11z"/>
<path d="M1990 5029 c0 -5 5 -7 10 -4 6 3 10 8 10 11 0 2 -4 4 -10 4 -5 0 -10
-5 -10 -11z"/>
<path d="M1930 5015 c0 -8 29 -12 39 -5 9 5 4 8 -13 8 -14 0 -26 -2 -26 -3z"/>
<path d="M2010 5006 c0 -8 4 -17 9 -20 5 -4 7 3 4 14 -6 23 -13 26 -13 6z"/>
<path d="M5455 5010 c-3 -5 -3 -10 2 -10 4 0 1 -5 -7 -11 -12 -8 -12 -10 -1
-7 8 2 15 12 17 21 3 19 -2 22 -11 7z"/>
<path d="M5494 5009 c-3 -5 -2 -9 3 -9 4 0 -5 -9 -22 -20 -25 -16 -26 -19 -8
-17 12 0 20 4 17 8 -2 4 3 10 12 13 9 3 12 11 8 18 -5 7 -2 9 8 6 8 -4 21 -3
27 2 9 5 4 8 -13 8 -15 0 -29 -4 -32 -9z"/>
<path d="M1915 4991 c-4 -7 0 -8 11 -4 11 4 15 3 10 -5 -3 -6 -2 -13 3 -16 5
-4 8 2 7 11 -3 20 -21 28 -31 14z"/>
<path d="M1977 4983 c6 -25 18 -30 29 -10 4 6 4 9 -1 5 -4 -4 -14 0 -21 10
-12 15 -12 15 -7 -5z"/>
<path d="M5535 4991 c-3 -5 0 -13 6 -17 7 -4 9 -3 5 4 -3 5 0 13 6 15 9 4 10
6 1 6 -6 1 -14 -3 -18 -8z"/>
<path d="M5512 4975 c4 -4 0 -14 -10 -21 -15 -12 -15 -12 6 -7 24 6 29 18 10
29 -7 4 -10 4 -6 -1z"/>
<path d="M2033 4937 c1 -15 5 -27 10 -27 10 0 9 22 -2 39 -7 10 -9 7 -8 -12z"/>
<path d="M1940 4944 c0 -13 18 -39 24 -34 2 3 -2 14 -10 24 -8 11 -14 16 -14
10z"/>
<path d="M5473 4924 c0 -17 2 -22 7 -13 5 6 6 18 3 26 -8 19 -10 16 -10 -13z"/>
<path d="M1987 4923 c3 -7 9 -13 15 -13 5 0 7 4 4 9 -4 5 0 11 6 14 7 3 3 4
-8 4 -14 -1 -20 -6 -17 -14z"/>
<path d="M5495 4910 c-8 -13 3 -30 18 -29 9 0 9 2 0 6 -7 2 -13 9 -13 14 0 6
5 7 12 3 7 -4 8 -3 4 4 -9 15 -13 15 -21 2z"/>
<path d="M5392 4894 c-7 -8 -8 -14 -3 -14 10 0 25 19 20 25 -2 1 -10 -3 -17
-11z"/>
<path d="M1965 4890 c-3 -6 1 -7 9 -4 18 7 21 14 7 14 -6 0 -13 -4 -16 -10z"/>
<path d="M2010 4896 c0 -2 7 -7 16 -10 8 -3 12 -2 9 4 -6 10 -25 14 -25 6z"/>
<path d="M2050 4892 c0 -4 10 -9 22 -9 18 -2 20 0 8 7 -18 12 -30 13 -30 2z"/>
<path d="M5435 4889 c-11 -16 -1 -19 13 -3 7 8 8 14 3 14 -5 0 -13 -5 -16 -11z"/>
<path d="M5476 4877 c3 -10 9 -15 12 -12 3 3 0 11 -7 18 -10 9 -11 8 -5 -6z"/>
<path d="M1973 4867 c-3 -6 -1 -7 5 -3 5 3 13 0 16 -6 5 -11 7 -11 12 0 3 6
11 9 17 5 7 -3 9 -2 4 2 -11 12 -47 13 -54 2z"/>
<path d="M5456 4852 c0 -18 7 -28 18 -28 10 -1 11 0 2 3 -8 2 -12 12 -9 22 3
10 1 21 -4 24 -5 3 -8 -7 -7 -21z"/>
<path d="M2037 4857 c-3 -8 -2 -20 3 -26 5 -9 8 -4 8 13 0 29 -3 32 -11 13z"/>
<path d="M5380 4855 c0 -8 29 -12 39 -5 9 5 4 8 -13 8 -14 0 -26 -2 -26 -3z"/>
<path d="M5495 4850 c-3 -6 1 -7 9 -4 18 7 21 14 7 14 -6 0 -13 -4 -16 -10z"/>
<path d="M2068 4843 c6 -2 18 -2 25 0 6 3 1 5 -13 5 -14 0 -19 -2 -12 -5z"/>
<path d="M1975 4830 c-3 -5 -1 -10 4 -10 6 0 11 5 11 10 0 6 -2 10 -4 10 -3 0
-8 -4 -11 -10z"/>
<path d="M2004 4829 c-4 -7 -3 -9 4 -5 5 3 13 0 15 -6 4 -9 6 -10 6 -1 1 17
-16 25 -25 12z"/>
<path d="M5419 4838 c-6 -21 -5 -37 2 -32 5 3 7 9 4 14 -3 4 1 11 7 13 10 4
10 6 1 6 -7 1 -13 0 -14 -1z"/>
<path d="M2070 4813 c5 -2 8 -9 4 -14 -3 -5 0 -9 6 -9 15 0 7 23 -8 26 -7 1
-8 0 -2 -3z"/>
<path d="M5436 4805 c-9 -26 -7 -32 5 -12 6 10 9 21 6 23 -2 3 -7 -2 -11 -11z"/>
<path d="M2015 4791 c-6 -11 6 -20 35 -26 11 -2 20 1 20 6 0 5 -6 9 -12 8 -26
-3 -39 1 -33 11 3 6 4 10 1 10 -3 0 -7 -4 -11 -9z"/>
<path d="M5455 4790 c-3 -5 -3 -10 2 -10 4 0 1 -5 -7 -10 -11 -7 -11 -10 -2
-10 7 0 10 -5 6 -12 -4 -6 -3 -8 4 -5 5 4 9 15 8 25 -2 9 4 20 13 24 14 6 14
7 -1 7 -9 1 -20 -3 -23 -9z"/>
<path d="M5414 4771 c2 -14 9 -27 17 -29 11 -3 12 -2 1 6 -8 5 -13 12 -12 16
1 4 -1 12 -4 19 -2 6 -3 1 -2 -12z"/>
<path d="M2015 4751 c-6 -10 33 -36 42 -28 2 3 -5 8 -16 12 -12 3 -19 11 -16
16 4 5 4 9 1 9 -3 0 -7 -4 -11 -9z"/>
<path d="M5407 4729 c7 -7 15 -10 18 -7 3 3 -2 9 -12 12 -14 6 -15 5 -6 -5z"/>
<path d="M5431 4703 c-10 -26 -10 -27 4 -9 8 11 15 23 15 28 0 15 -7 8 -19
-19z"/>
<path d="M2070 4710 c0 -5 5 -10 10 -10 6 0 10 5 10 10 0 6 -4 10 -10 10 -5 0
-10 -4 -10 -10z"/>
<path d="M2030 4690 c0 -5 7 -7 15 -4 8 4 15 8 15 10 0 2 -7 4 -15 4 -8 0 -15
-4 -15 -10z"/>
<path d="M5393 4661 c-9 -15 -9 -20 0 -24 7 -3 13 5 13 19 2 29 2 29 -13 5z"/>
<path d="M2073 4655 c0 -8 4 -15 9 -15 4 0 8 4 8 9 0 6 -4 12 -8 15 -5 3 -9
-1 -9 -9z"/>
<path d="M2108 4613 c7 -3 16 -2 19 1 4 3 -2 6 -13 5 -11 0 -14 -3 -6 -6z"/>
<path d="M5350 4610 c0 -6 4 -9 9 -6 5 4 12 1 14 -4 3 -6 4 -5 3 2 -3 15 -26
23 -26 8z"/>
<path d="M5332 4566 c7 -8 15 -12 17 -11 5 6 -10 25 -20 25 -5 0 -4 -6 3 -14z"/>
<path d="M5315 4550 c-3 -5 -1 -10 4 -10 6 0 11 5 11 10 0 6 -2 10 -4 10 -3 0
-8 -4 -11 -10z"/>
<path d="M2150 4518 c-12 -22 -12 -22 6 -6 10 10 15 20 12 24 -4 3 -12 -5 -18
-18z"/>
<path d="M5315 4509 c-4 -6 -4 -13 -1 -16 3 -4 6 -1 6 6 0 7 5 9 12 5 7 -4 8
-3 4 4 -9 15 -13 15 -21 1z"/>
<path d="M5259 4489 c-12 -9 -12 -10 1 -6 8 2 23 0 33 -5 9 -5 17 -6 17 -4 0
13 -37 24 -51 15z"/>
<path d="M5239 4463 c0 -5 -2 -16 -4 -25 -2 -10 0 -18 5 -18 4 0 8 11 8 25 0
22 -7 36 -9 18z"/>
<path d="M5270 4459 c0 -5 5 -7 10 -4 6 3 10 8 10 11 0 2 -4 4 -10 4 -5 0 -10
-5 -10 -11z"/>
<path d="M2190 4450 c0 -6 7 -10 15 -10 8 0 15 2 15 4 0 2 -7 6 -15 10 -8 3
-15 1 -15 -4z"/>
<path d="M2230 4430 c0 -5 5 -10 10 -10 6 0 10 5 10 10 0 6 -4 10 -10 10 -5 0
-10 -4 -10 -10z"/>
<path d="M2255 4410 c-3 -6 1 -7 9 -4 18 7 21 14 7 14 -6 0 -13 -4 -16 -10z"/>
<path d="M5235 4399 c-4 -6 -5 -12 -2 -15 2 -3 7 2 10 11 7 17 1 20 -8 4z"/>
<path d="M2270 4390 c0 -6 7 -10 15 -10 8 0 15 2 15 4 0 2 -7 6 -15 10 -8 3
-15 1 -15 -4z"/>
<path d="M5170 4370 c0 -5 5 -10 10 -10 6 0 10 5 10 10 0 6 -4 10 -10 10 -5 0
-10 -4 -10 -10z"/>
<path d="M5190 4339 c0 -5 5 -7 10 -4 6 3 10 8 10 11 0 2 -4 4 -10 4 -5 0 -10
-5 -10 -11z"/>
<path d="M4754 4132 c4 -3 14 -7 22 -8 9 -1 13 0 10 4 -4 3 -14 7 -22 8 -9 1
-13 0 -10 -4z"/>
<path d="M3513 3125 c0 -8 4 -12 9 -9 4 3 8 9 8 15 0 5 -4 9 -8 9 -5 0 -9 -7
-9 -15z"/>
<path d="M3505 3089 c-4 -6 -5 -12 -2 -15 2 -3 7 2 10 11 7 17 1 20 -8 4z"/>
<path d="M4376 3067 c3 -10 9 -15 12 -12 3 3 0 11 -7 18 -10 9 -11 8 -5 -6z"/>
<path d="M4414 3069 c-3 -6 -2 -15 3 -20 5 -5 9 -1 9 11 0 23 -2 24 -12 9z"/>
<path d="M3030 3049 c0 -5 5 -7 10 -4 6 3 10 8 10 11 0 2 -4 4 -10 4 -5 0 -10
-5 -10 -11z"/>
<path d="M4255 3011 c-3 -5 -2 -12 3 -15 5 -3 9 1 9 9 0 17 -3 19 -12 6z"/>
<path d="M3153 2995 c0 -7 6 -11 14 -8 7 3 13 6 13 8 0 2 -6 5 -13 8 -8 3 -14
-1 -14 -8z"/>
<path d="M2931 2557 c-147 -69 -212 -302 -128 -462 50 -98 120 -128 298 -128
109 0 167 16 219 60 91 78 126 226 85 357 -13 42 -31 69 -72 110 -68 67 -107
80 -249 81 -91 1 -119 -2 -153 -18z m200 -104 c24 -59 11 -326 -20 -405 -21
-54 -56 -27 -66 51 -6 50 -7 158 -2 191 3 14 8 48 11 75 10 71 18 99 30 107
21 14 37 8 47 -19z"/>
<path d="M3549 2512 c-3 -143 0 -316 7 -382 4 -41 6 -84 6 -94 -2 -49 8 -53
144 -50 70 2 129 6 132 8 3 3 5 39 5 81 l-1 75 37 10 c20 5 50 10 68 10 54 0
63 8 63 55 0 59 -19 73 -102 74 l-38 1 0 65 c0 45 4 65 13 66 12 2 104 7 143
8 19 1 21 6 18 42 -8 77 5 73 -258 76 l-236 2 -1 -47z"/>
<path d="M4171 2550 c-11 -6 -14 -41 -14 -151 0 -145 9 -328 19 -385 l5 -30
131 3 c72 1 132 4 134 5 1 2 4 40 6 84 2 44 8 81 13 82 35 4 116 14 131 16 15
2 20 13 22 48 4 57 -20 78 -90 78 l-48 0 0 65 c0 60 2 65 23 66 12 1 36 3 52
4 17 2 47 3 67 4 34 1 37 4 34 24 -3 12 -5 31 -5 42 -3 48 -6 49 -243 52 -123
1 -230 -2 -237 -7z"/>
<path d="M3140 1662 c-127 -16 -230 -154 -232 -312 -2 -136 67 -254 163 -281
66 -18 254 -20 313 -2 130 39 208 206 171 368 -13 59 -54 135 -73 135 -7 0
-10 5 -7 10 3 6 -5 14 -19 20 -14 5 -26 13 -26 18 0 26 -193 56 -290 44z m138
-148 c11 -50 9 -209 -4 -299 -4 -33 -8 -63 -8 -67 -1 -4 -9 -17 -19 -29 -17
-19 -20 -19 -36 -5 -9 8 -19 30 -21 48 -6 48 -4 228 3 263 3 17 8 49 12 73 13
81 57 91 73 16z"/>
<path d="M5070 1657 c-92 -19 -174 -97 -202 -192 -13 -44 -16 -202 -4 -250 13
-55 58 -107 114 -133 72 -32 195 -38 263 -13 70 27 88 48 84 96 -1 22 -3 48
-4 58 -1 18 -3 18 -33 -1 -73 -45 -138 -24 -156 48 -10 45 -4 158 11 190 27
57 57 67 167 57 23 -2 25 2 28 44 l3 46 -50 22 c-77 33 -152 42 -221 28z"/>
<path d="M2234 1638 c-9 -14 -1 -136 10 -154 9 -15 23 -19 66 -19 l55 0 1
-170 c0 -94 4 -182 7 -197 l7 -26 113 -1 c62 0 118 3 125 8 9 5 14 57 18 182
4 96 11 182 16 192 8 15 20 18 72 16 35 -1 67 1 73 4 6 4 10 41 9 89 l-1 83
-283 0 c-156 0 -286 -3 -288 -7z"/>
<path d="M3698 1639 c-14 -9 -8 -420 6 -438 8 -11 8 -13 -1 -8 -10 6 -12 -47
-4 -116 2 -13 251 -3 260 11 4 6 7 38 6 69 l-1 58 91 -1 c146 -1 221 32 256
114 23 52 30 131 17 183 -13 49 -46 85 -104 111 -46 20 -64 22 -282 22 -129 1
-238 -2 -244 -5z m363 -85 c16 -32 17 -175 0 -217 -11 -29 -44 -47 -72 -40
-15 4 -17 15 -14 71 5 99 15 173 26 194 14 26 43 22 60 -8z"/>
<path d="M4447 1643 c-7 -11 0 -392 8 -478 10 -107 10 -107 58 -99 23 3 77 6
120 6 42 0 77 3 78 6 0 4 2 16 5 27 2 11 6 137 9 281 l4 261 -139 1 c-76 1
-141 -1 -143 -5z"/>
</g>
</svg>
